<svg xmlns="http://www.w3.org/2000/svg" version="1.1" xmlns:xlink="http://www.w3.org/1999/xlink" xmlns:svgjs="http://svgjs.dev/svgjs" viewBox="0 0 10.473740705077404 10.473740705077404"><g transform="matrix(1,0,0,1,3.1668346068976123,2.985995340936261)"><rect width="10.473740705077404" height="10.473740705077404" x="-3.1668346068976123" y="-2.985995340936261" fill="#dceac6"></rect><g><path d=" M -1.2444913135101319 2.3992840402351794 Q -1.2385562400330372 2.3984037545875125 -1.2381160972092038 2.4013712913260594 L -1.2216840984527542 2.5121593295651587 Q -1.2193366700589756 2.527986192170744 -1.2167336341254038 2.5387204459374733 Q -1.214130598191832 2.549454699704202 -1.213103598269554 2.5563789520941453 Q -1.2107561698757754 2.572205814699731 -1.2164877975641153 2.5846817292570794 Q -1.2222194252524552 2.5971576438144277 -1.239582217978353 2.616413381368661 Q -1.256945010704251 2.6356691189228942 -1.307166209202981 2.6855773469153923 Q -1.313356890219869 2.6915502414019157 -1.3208112681941135 2.69922697566963 Q -1.3282656461683584 2.7069037099373436 -1.3379729000128093 2.716430998260859 L -1.492848818700189 2.8718351481756548 L -1.4678591685760631 2.8903693702168893 L -1.25221816557496 2.8583856583516574 Q -1.221553619276638 2.8538375158387113 -1.2084386858698064 2.8468376214299096 Q -1.195323752462975 2.839837727021108 -1.1925052148805912 2.82476106141174 Q -1.1896866772982073 2.8096843958023725 -1.1943815340857644 2.7780306705912015 Q -1.194968391184209 2.774073954939805 -1.1890333177071144 2.773193669292138 Q -1.18309824423002 2.7723133836444713 -1.1825113871315753 2.7762700992958678 Q -1.177669816069407 2.808913003419888 -1.1758714237646442 2.8278541170386315 L -1.1658570320816566 2.9021892497769253 L -1.1540109968475818 2.9752417750531475 Q -1.1500875324425095 2.994878639035518 -1.1450992471057302 3.0285107220723875 Q -1.144805818556508 3.0304890798980857 -1.1507408920336024 3.0313693655457525 Q -1.156675965510697 3.0322496511934194 -1.1569693940599195 3.030271293367721 Q -1.1616642508474764 2.99861756815655 -1.1688108595308893 2.9845134558368693 Q -1.1759574682143021 2.970409343517189 -1.1911074909609753 2.9670962164783807 Q -1.2062575137076488 2.9637830894395725 -1.2359328810931216 2.968184517677907 L -1.6939227177422538 3.0361132268228728 Q -1.7235980851277266 3.0405146550612074 -1.7366396613972526 3.0480091389264334 Q -1.7496812376667785 3.05550362279166 -1.7529943647055868 3.070653645538333 Q -1.756307491744395 3.0858036682850063 -1.7517593492314492 3.1164682145833287 Q -1.7513192064076157 3.1194357513218756 -1.7572542798847104 3.120316036969543 Q -1.7631893533618048 3.1211963226172097 -1.7636294961856382 3.1182287858786624 L -1.7704161738271806 3.065655589223049 Q -1.7751866726335956 3.019859930682768 -1.779147958048097 2.9931521000358425 Q -1.7835493862864316 2.9634767326503697 -1.792276600744243 2.9182679312085336 L -1.8007482076622612 2.867966520927841 Q -1.8011883504860946 2.8649989841892936 -1.795253277009 2.8641186985416267 Q -1.7893182035319053 2.8632384128939594 -1.7888780607080719 2.8662059496325067 Q -1.7843299181951262 2.8968704959308287 -1.7762674877361697 2.9103333045194737 Q -1.7682050572772134 2.9237961131081187 -1.75305503453054 2.927109240146927 Q -1.7379050117838668 2.9304223671857352 -1.708229644398394 2.9260209389474006 L -1.4985237148743853 2.8949175127298354 L -1.7160283497683095 2.7371210178395473 Q -1.748969252204657 2.712689543330647 -1.772709546113035 2.7162106859213146 Q -1.7905147665443188 2.7188515428643156 -1.7980591272790314 2.7361455482160126 Q -1.8056034880137437 2.7534395535677096 -1.8013487740500203 2.782125742040334 Q -1.8009086312261868 2.7850932787788807 -1.8068437047032815 2.7859735644265475 Q -1.812778778180376 2.786853850074215 -1.8132189210042093 2.7838863133356675 L -1.8191253129980849 2.737248190157149 Q -1.8236023832552775 2.693430889442566 -1.8291775256905014 2.6558420907543003 Q -1.8351928109495588 2.6152857553274873 -1.843626596858148 2.5720553117113494 L -1.8512179181284991 2.5276889749077514 Q -1.8516580609523325 2.524721438169204 -1.845722987475238 2.523841152521537 Q -1.8397879139981435 2.52296086687387 -1.83934777117431 2.525928403612417 Q -1.8325989145421966 2.571430633603476 -1.798316388248082 2.6219475455329806 Q -1.7640338619539673 2.6724644574624854 -1.7139078474311051 2.7105220804578036 L -1.583573559422398 2.8054271560294683 L -1.4074514894950299 2.629685822005571 Q -1.324994278449789 2.551744765131542 -1.2916791042299614 2.5139479508914166 Q -1.2583639300101337 2.4761511366512914 -1.2519010158302903 2.4549737727855034 Q -1.2454381016504472 2.4337964089197155 -1.2499862441633929 2.4031318626213936 Q -1.2504263869872265 2.4001643258828462 -1.2444913135101319 2.3992840402351794 M -1.785460406274371 1.80110266036476 Q -1.8179711574893405 1.8235593087219475 -1.820799481877192 1.8674683121398923 Q -1.8209280420766398 1.869464175931617 -1.8269156334518142 1.8690784953332737 Q -1.8329032248269883 1.8686928147349304 -1.8327746646275405 1.8666969509432056 L -1.828691287944931 1.8188605000415352 Q -1.824252780363698 1.7810676481982126 -1.8227743380700487 1.7581152145933778 Q -1.8215530161752946 1.7391545085719926 -1.821234796376959 1.703100400121499 L -1.8192758436855223 1.6571312528121056 Q -1.8191472834860745 1.6551353890203808 -1.8131596921109003 1.6555210696187244 Q -1.807172100735726 1.6559067502170675 -1.8073006609351738 1.6579026140087922 Q -1.8098075848244055 1.6968219579474253 -1.7802858582465975 1.7207691427478384 Q -1.7507641316687894 1.7447163275482516 -1.696875809292221 1.748187452933342 L -1.419450742242479 1.7660573206565853 Q -1.3495955095321124 1.770556927637258 -1.298697802142847 1.8048996616943582 Q -1.2478000947535817 1.8392423957514585 -1.2229908613559037 1.897457530709814 Q -1.198181627958226 1.9556726656681696 -1.2029383553377944 2.029519625961986 Q -1.2076950827173627 2.103366586255802 -1.2393011414857715 2.1584488615276887 Q -1.2709072002541804 2.2135311367995754 -1.3263856599238442 2.242524938079874 Q -1.3818641195935082 2.271518739360173 -1.4537152160955997 2.2668905721800527 L -1.7760472184591487 2.246128099969234 Q -1.80598517533502 2.244199696977517 -1.820309762425575 2.2487884010086256 Q -1.8346343495161297 2.253377105039734 -1.8410550363893692 2.2674935769812574 Q -1.8474757232626087 2.2816100489227806 -1.8494684063540496 2.312545937694514 Q -1.8496612466532212 2.3155397333821015 -1.8556488380283955 2.315154052783758 Q -1.8616364294035699 2.314768372185415 -1.861443589104398 2.3117745764978275 L -1.8570388119231693 2.2589484661168453 Q -1.8520860635441454 2.2131721591066236 -1.8503505008516001 2.186227997918339 Q -1.848422097859883 2.156290041042468 -1.8474610770643087 2.1102566136333505 L -1.8451807238742526 2.0592978068446453 Q -1.8449878835750808 2.056304011157058 -1.8390002921999065 2.0566896917554014 Q -1.833012700824732 2.057075372353745 -1.8332055411239039 2.060069168041332 Q -1.8351982242153446 2.091005056813066 -1.830142694286167 2.1058607499014137 Q -1.825087164356989 2.1207164429897616 -1.810970692415466 2.127137129863001 Q -1.7968542204739428 2.1335578167362406 -1.7669162635980715 2.135486219727958 L -1.4815077413814306 2.153870328248992 Q -1.362753845773807 2.1615196601161357 -1.3028505630226284 2.118280826694866 Q -1.2429472802714496 2.075041993273596 -1.2374191916951944 1.9892198502294312 Q -1.232083943418111 1.9063915028728535 -1.2794583394721382 1.8562425587312648 Q -1.3268327355261653 1.8060936145896762 -1.4206383337372293 1.80005128521563 L -1.6990613326828334 1.782117137392663 Q -1.752949655059402 1.7786460120075724 -1.785460406274371 1.80110266036476 M -1.5797041115503156 1.3680389242885915 Q -1.5479468545120578 1.3571887341793807 -1.520822706086779 1.3363493346629975 Q -1.4936985576614998 1.3155099351466142 -1.453078506783238 1.2785503427970304 Q -1.4095153445560014 1.2382235415754672 -1.3787322332550513 1.215236587478995 Q -1.3479491219541013 1.1922496333825228 -1.3092717175489441 1.180617419986959 Q -1.2705943131437871 1.1689852065913953 -1.2270454322255868 1.18032076880826 Q -1.1767222809423332 1.1934196407033038 -1.1445815268286688 1.2307187281586955 Q -1.1124407727150043 1.2680178156140873 -1.1031354506944555 1.32158936573254 Q -1.0938301286739067 1.3751609158509928 -1.1091961130123233 1.4341938433178865 Q -1.1205316752291883 1.4777427242360868 -1.1449717543426077 1.5220138495089979 Q -1.1694118334560273 1.566284974781909 -1.1882104505995763 1.578958253500941 Q -1.1933409691497345 1.5827894125170197 -1.1973578577887538 1.5843271399511634 Q -1.2013747464277729 1.5858648673853073 -1.2091167697021197 1.5838496563245315 L -1.3637451864275516 1.5467005952194892 L -1.364712939336845 1.5464486938368922 Q -1.3685839509740183 1.5454410883065042 -1.36780832051568 1.540476373068739 Q -1.3670326900573415 1.5355116578309738 -1.3629097770375713 1.5355515104520685 Q -1.2963198080927678 1.521884907511685 -1.2538774164311883 1.5096827195912705 Q -1.211435024769609 1.4974805316708564 -1.174679592700506 1.471398196395549 Q -1.1379241606314028 1.4453158611202417 -1.126840499797135 1.4027347331113347 Q -1.1167644444932552 1.364024616739601 -1.1310216960955402 1.3334471613721388 Q -1.145278947697825 1.3028697060046768 -1.1956020989810787 1.2897708341096328 Q -1.2381832269899855 1.278687173275365 -1.2750311499573073 1.2892456093808844 Q -1.3118790729246288 1.2998040454864037 -1.3411906285510915 1.3211073951468864 Q -1.3705021841775542 1.3424107448073688 -1.4138134450221937 1.3817697931196387 Q -1.455905051574943 1.420412989905212 -1.4838710022182169 1.4405166115843517 Q -1.5118369528614908 1.4606202332634912 -1.5466234193189272 1.471198595679558 Q -1.5814098857763637 1.4817769580956244 -1.6220555079666839 1.4711971000265507 Q -1.6733464121592307 1.45784632674891 -1.7009864011792293 1.4191354625506727 Q -1.7286263901992278 1.3804245983524355 -1.7334707997472056 1.3295641845109079 Q -1.7383152092951832 1.27870377066938 -1.7249644360175425 1.2274128664768331 Q -1.7161478876266476 1.1935415146515662 -1.700789043942749 1.1603397689038866 Q -1.6854302002588506 1.1271380231562067 -1.6711785936580765 1.1081145715951264 Q -1.6650404695775303 1.1004124009418743 -1.6599298773379192 1.0986426984356807 Q -1.6548192850983083 1.0968729959294872 -1.6480450147332548 1.0986363056076662 L -1.5057853370671341 1.1356658088494245 Q -1.502882078339254 1.1364215129972153 -1.502689955888299 1.1416381296175775 Q -1.502497833437344 1.1468547462379397 -1.505652993547821 1.147066794999442 L -1.5260555098851705 1.150022692004446 Q -1.5933214777355755 1.1583467276331687 -1.6443413020614819 1.1796827892602277 Q -1.6953611263873882 1.2010188508872868 -1.7104752093432078 1.2590840254448872 Q -1.7205512646470877 1.2977941418166208 -1.7047164329895643 1.328265572803332 Q -1.688881601332041 1.3587370037900428 -1.646300473323134 1.3698206646243107 Q -1.6114613685885737 1.3788891143978024 -1.5797041115503156 1.3680389242885915 M -0.737634257517001 0.48043133379962044 Q -0.7322474458495494 0.48307373045027835 -0.7335686441748783 0.48576713628400414 Q -0.7489826246370497 0.5171902043441379 -0.7591288148589278 0.5356036457384418 L -0.7939373738202801 0.6042939960289598 L -0.8326755216355741 0.6855365704825087 Q -0.8397049096429726 0.7021374049266396 -0.8533572923380387 0.7299692652084723 Q -0.8546784906633678 0.732662671042198 -0.8600653023308192 0.73002027439154 Q -0.8654521139982707 0.7273778777408821 -0.8641309156729418 0.7246844719071563 Q -0.8478361363272178 0.691465799957872 -0.8448383555398964 0.6740011696912112 Q -0.8418405747525752 0.6565365394245504 -0.8517674053259707 0.6449841355722302 Q -0.8616942358993662 0.6334317317199102 -0.889526096181199 0.6197793490248441 L -1.0960205434335066 0.5184874774162894 L -1.2382695631272596 0.8084775055140954 L -1.031775115874952 0.90976937712265 Q -1.0048410575376945 0.9229813603759398 -0.9891805326906954 0.923980340614245 Q -0.9735200078436963 0.9249793208525503 -0.9615442076106225 0.9119186850036527 Q -0.9495684073775488 0.898858049154755 -0.9332736280318248 0.8656393772054707 Q -0.9323928291482722 0.8638437733163202 -0.9270060174808206 0.8664861699669781 Q -0.9216192058133691 0.869128566617636 -0.9225000046969217 0.8709241705067866 Q -0.9379139851590931 0.9023472385669205 -0.9480601753809712 0.9207606799612243 L -0.9872727287600866 0.9984290496974948 L -1.0194048849487358 1.0662045949824148 Q -1.027315071839687 1.0846010333156964 -1.0427290523018584 1.11602410137583 Q -1.043609851185411 1.1178197052649805 -1.0489966628528626 1.1151773086143226 Q -1.054383474520314 1.1125349119636647 -1.0535026756367614 1.110739308074514 Q -1.03808869517459 1.0793162400143803 -1.0355313138290452 1.0627494116922946 Q -1.0329739324835001 1.0461825833702092 -1.0433496640291833 1.034409979797001 Q -1.0537253955748664 1.0226373762237926 -1.0806594539121241 1.009425392970503 L -1.4963417542504651 0.8055204514280645 Q -1.5232758125877226 0.7923084681747747 -1.5384874364624341 0.7915296876573577 Q -1.5536990603371454 0.7907509071399407 -1.5654631623798425 0.8022446403510872 Q -1.5772272644225394 0.8137383735622339 -1.5922008454429344 0.8442636396777924 Q -1.5935220437682633 0.8469570455115181 -1.598908855435715 0.8443146488608602 Q -1.6042956671031665 0.8416722522102023 -1.6029744687778376 0.8389788463764765 L -1.5782950969773406 0.7909379408111893 Q -1.5562411187664793 0.7505198502442804 -1.543909934396742 0.7253813957961733 Q -1.5271747556092417 0.6912649219023138 -1.506950387409576 0.6454940257899987 L -1.4836262200564534 0.5956745193965836 Q -1.4827454211729008 0.5938789155074331 -1.4773586095054494 0.596521312158091 Q -1.4719717978379978 0.5991637088087489 -1.4728525967215504 0.6009593126978994 Q -1.488706976625498 0.6332801827026084 -1.4908069554682442 0.6511852124110457 Q -1.4929069343109902 0.6690902421194829 -1.482751402486195 0.6813117466649787 Q -1.4725958706614 0.6935332512104746 -1.4456618123241425 0.7067452344637644 L -1.2634080175753666 0.7961463211443582 L -1.1211589978816137 0.5061562930465523 L -1.3034127926303896 0.4167552063659583 Q -1.330346850967647 0.40354322311266855 -1.3460073758146462 0.4025442428743634 Q -1.3616679006616454 0.4015452626360583 -1.3745415028392944 0.41416549904317956 Q -1.3874151050169434 0.42678573545030085 -1.4037098843626672 0.46000440739958504 Q -1.4050310826879964 0.46269781323331083 -1.410417894355448 0.4600554165826529 Q -1.4158047060228993 0.457413019931995 -1.4144835076975704 0.4547196140982692 L -1.3920061331059552 0.4111677182558582 Q -1.3681905571279884 0.36715841991064835 -1.3505745794569355 0.33124634212763837 Q -1.3386837945289747 0.30700568962410657 -1.318459426329309 0.26123479351179135 L -1.29469485953441 0.2105174851738011 Q -1.2933736612090811 0.2078240793400753 -1.2879868495416296 0.21046647599073331 Q -1.282600037874178 0.21310887264139122 -1.283921236199507 0.21580227847511702 Q -1.298894817219902 0.2463275445906754 -1.3012234973140475 0.2635634736059369 Q -1.303552177408193 0.2807994026211984 -1.2934051471139094 0.29190290550123066 Q -1.2832581168196255 0.30300640838126314 -1.256324058482368 0.3162183916345529 L -0.840641758144027 0.5201233331769913 Q -0.8137076998067695 0.5333353164302811 -0.7982673746806586 0.5347831976408739 Q -0.7828270495545476 0.5362310788514668 -0.7712916487632502 0.5240682449471443 Q -0.7597562479719527 0.511905411042822 -0.7443422675097813 0.4804823429826882 Q -0.7430210691844523 0.4777889371489624 -0.737634257517001 0.48043133379962044 M -0.5852987696070007 -0.6692837582586575 Q -0.5807194644859452 -0.665406908428154 -0.5820117477627798 -0.6638804733878021 Q -0.6059189883842184 -0.6356414251412938 -0.6028772397472384 -0.590483394125433 Q -0.5998354911102584 -0.5453253631095725 -0.5714275019073463 -0.49376000507292905 L -0.31393425004764297 -0.033370794462259545 Q -0.3115275216053566 -0.030023010388414595 -0.31798893798952926 -0.022390835186655633 Q -0.32445035437370184 -0.01475865998489656 -0.32814936609282275 -0.016580009018389685 L -0.6176874437779023 -0.09399255044695187 L -0.4761158012903757 0.15819680310189238 Q -0.4737090728480893 0.16154458717573728 -0.4801704892322619 0.16917676237749635 Q -0.48663190561643455 0.17680893757925542 -0.49033091733555545 0.17498758854576224 L -1.0679977135471213 0.020045429806879234 Q -1.1021127987690091 0.01081716018016543 -1.1189361896164358 0.009021743683994832 Q -1.1357595804638625 0.0072263271878242885 -1.1473879056666285 0.012449549658552217 Q -1.1590162308693945 0.0176727721292802 -1.1712929219993224 0.03217390501262235 Q -1.1732313469145743 0.03446355757315006 -1.1778106520356295 0.03058670774264649 Q -1.1823899571566852 0.02670985791214292 -1.1804515322414333 0.02442020535161521 Q -1.1707594076651744 0.012971942548976656 -1.166119340314495 0.009038779066338487 Q -1.1516700725057978 -0.004933288060345042 -1.1309935400764455 -0.029356248705973975 Q -1.087702050302489 -0.08049182255775955 -1.0595059699756466 -0.11689211176268566 Q -1.0518693461963982 -0.1274600811633897 -1.0395926550664703 -0.1419612140467319 Q -1.0376542301512184 -0.1442508666072596 -1.033074925030163 -0.14037401677675598 Q -1.0284956199091075 -0.13649716694625247 -1.0304340448243594 -0.13420751438572476 Q -1.0465875857847908 -0.11512707638132713 -1.0495559853872927 -0.10388258422739383 Q -1.0525243849897943 -0.09263809207346052 -1.0426025572275077 -0.08423825077403613 Q -1.0296278593845172 -0.07325384292094261 -0.977368943212301 -0.059146905602542654 L -0.5695143555899984 0.05030004664118859 L -0.654738323198735 -0.10439602746874155 L -0.9058161623043886 -0.1715221677572727 Q -0.9442764008838146 -0.1818085688973038 -0.9673248320631518 -0.1816677847669672 Q -0.9903732632424891 -0.18152700063663074 -1.0013576710955827 -0.16855230279364042 Q -1.0032960960108344 -0.1662626502331127 -1.0078754011318898 -0.17013950006361633 Q -1.0124547062529452 -0.17401634989411985 -1.0105162813376936 -0.17630600245464756 Q -1.0040548649535208 -0.18393817765640663 -0.9941871265546239 -0.19327240172115545 Q -0.9843193881557271 -0.20260662578590427 -0.9681658471952954 -0.22168706379030179 Q -0.9313357738055116 -0.2651904624403283 -0.9083088265860073 -0.2954850114838472 Q -0.9026106277220107 -0.30376332832402353 -0.8922723615073345 -0.315974808646838 Q -0.8903339365920828 -0.31826446120736573 -0.8857546314710274 -0.3143876113768622 Q -0.881175326349972 -0.3105107615463586 -0.8831137512652236 -0.3082211089858309 Q -0.8921597342030654 -0.29753606370336816 -0.8936883935321619 -0.29031365408776444 Q -0.8952170528612584 -0.2830912444721607 -0.8883480951796753 -0.27727596972640534 Q -0.8753733973366848 -0.2662915618733118 -0.8151873919695682 -0.25071450316669464 L -0.7157779305028495 -0.224204901681629 L -0.7507599633942037 -0.2865768294599832 Q -0.7800482459990504 -0.34019768829363695 -0.8021815540841517 -0.3589357958077375 Q -0.8243148621692529 -0.37767390332183814 -0.8404684031296844 -0.3585934653174405 Q -0.8424068280449362 -0.3563038127569129 -0.8469861331659916 -0.36018066258741643 Q -0.851565438287047 -0.36405751241791995 -0.8496270133717952 -0.36634716497844777 Q -0.8444578802644571 -0.37245290513985485 -0.8371747084192294 -0.37873425912390013 Q -0.8298915365740015 -0.3850156131079453 -0.8053381543141456 -0.4140178788746296 Q -0.7943537464610522 -0.42699257671762003 -0.7803727821793895 -0.44660208047867633 L -0.7572287590781268 -0.47548727036360194 Q -0.7559364758012923 -0.4770137054039538 -0.7513571706802369 -0.4731368555734503 Q -0.7467778655591815 -0.4692600057429467 -0.748070148836016 -0.4677335707025948 Q -0.7913616386099726 -0.41659799685080934 -0.7297322033195753 -0.3067717126298326 L -0.6780809094435996 -0.21456464218001525 L -0.40744988022902434 -0.14267691008155647 L -0.5874076533338846 -0.46405083543820336 Q -0.6040769143185063 -0.4938859781096666 -0.6239205698430799 -0.5106856607085155 Q -0.6475803129685329 -0.5307160514994506 -0.6713334237271666 -0.5305167294282347 Q -0.6950865344858006 -0.530317407357019 -0.7118862170846494 -0.5104737518324455 Q -0.7138246419999011 -0.5081840992719178 -0.7184039471209566 -0.5120609491024213 Q -0.722983252242012 -0.5159377989329249 -0.7210448273267602 -0.5182274514934526 L -0.6905590944393902 -0.552689315783127 Q -0.665771560416017 -0.578872863232625 -0.6463873112634991 -0.6017693888379021 Q -0.633464478495154 -0.6170337392414202 -0.6181912309366568 -0.6381696780428281 L -0.5911703580048906 -0.6716341730488093 Q -0.5898780747280561 -0.673160608089161 -0.5852987696070007 -0.6692837582586575 M 0.42236134759612454 -0.6319236972201678 Q 0.4258917764270126 -0.6270722982188451 0.4218489439259103 -0.6241302741931052 Q 0.40567761392150137 -0.6123621780901451 0.3705410113019466 -0.58926630927437 Q 0.3337872756819509 -0.5649936308482988 0.31842451217776235 -0.5538139395504869 Q 0.29821034967225113 -0.5391038194217868 0.2702787652746111 -0.5163041134360179 Q 0.24396431387741185 -0.49468121706054496 0.2277929838730029 -0.482913120957585 Q 0.22455871787212106 -0.48055950173699297 0.22102828904123306 -0.48541090073831566 Q 0.21749786021034506 -0.49026229973963836 0.2207321262112269 -0.4926159189602304 Q 0.2417548552169585 -0.5079144438940784 0.24781714354117967 -0.5191282149044928 Q 0.2538794318654008 -0.5303419859149073 0.24564176459332876 -0.5416619169179936 Q 0.23563888290581275 -0.5554075474217413 0.19593136069548378 -0.5759821113275991 L -0.008782540382782894 -0.6805441441373988 L -0.1527073774220226 -0.5758080888210547 L -0.1177360445294383 -0.40708640712093636 Q -0.1111836696830121 -0.37598871614761936 -0.09647354955431209 -0.3557745536421082 Q -0.07529097656898406 -0.32666615963417206 -0.04290443471040263 -0.3254991521610371 Q -0.010517892851821198 -0.32433214468790217 0.024250466657658065 -0.3496335513092662 Q 0.028293299158760304 -0.35257557533500616 0.031823727989648304 -0.3477241763336835 Q 0.0353541568205363 -0.3428727773323608 0.031311324319434064 -0.3399307533066208 Q 0.016757127315465997 -0.3293394668139568 -0.011910943302325228 -0.31095083643936566 Q -0.043813279920998247 -0.29020858684418255 -0.06645314192717078 -0.27373325230003853 Q -0.08828443743312288 -0.2578463225610425 -0.11783315483120388 -0.2338698069649776 Q -0.1441476062284031 -0.21224691058950468 -0.1611275027330325 -0.19989040968139668 Q -0.1643617687339143 -0.19753679046080466 -0.1678921975648023 -0.20238818946212736 Q -0.1714226263956903 -0.20723958846345003 -0.16818836039480853 -0.20959320768404205 Q -0.14554849838863598 -0.22606854222818606 -0.1369523901436495 -0.24654674827853323 Q -0.128356281898663 -0.2670249543288804 -0.1303514601463405 -0.3020573573831956 Q -0.132346638394018 -0.3370897604375108 -0.1454513880868704 -0.3992851423841448 L -0.25066154959462955 -0.9126552057064146 Q -0.25080963100963266 -0.9162577148173718 -0.24514966550808953 -0.9203765484534079 Q -0.23868113350632592 -0.9250837868945918 -0.23610735259066146 -0.9232464921990786 L 0.2555294365972668 -0.6725329753776184 Q 0.32560600527049055 -0.6357189220421466 0.3600899645145569 -0.6274209370545986 Q 0.3945739237586231 -0.6191229520670505 0.4147880862641343 -0.6338330721957506 Q 0.4188309187652366 -0.6367750962214905 0.42236134759612454 -0.6319236972201678 M -0.1586713474633008 -0.6060972132941512 L -0.036577805930013196 -0.6949463388714994 L -0.1942310851610331 -0.77562746149449 L -0.1586713474633008 -0.6060972132941512 M 1.1188914283190923 -0.929188847902868 Q 1.1212123514861534 -0.9236559177883086 1.1184458864288735 -0.922495456204778 Q 1.0861704607606097 -0.9089567377302556 1.0664183848318078 -0.9017556616646354 L 0.995025627833784 -0.8728926360397792 L 0.9124184966432348 -0.837156633514771 Q 0.8962065268273998 -0.8292717089944948 0.867619721235509 -0.8172802726313463 Q 0.8648532561782292 -0.8161198110478157 0.8625323330111682 -0.8216527411623753 Q 0.8602114098441072 -0.8271856712769348 0.862977874901387 -0.8283461328604653 Q 0.8970976106078372 -0.8426584923906748 0.9108401432932052 -0.8538452164594805 Q 0.9245826759785729 -0.8650319405282862 0.9247001187033234 -0.8802630339626528 Q 0.9248175614280739 -0.8954941273970194 0.9128261250649254 -0.9240809329889101 L 0.8238574036609205 -1.1361765873803582 L 0.5260013324938001 -1.011233556886908 L 0.6149700538978049 -0.7991379024954599 Q 0.6265746697331099 -0.7714732519226623 0.6377164975014001 -0.7604229273128711 Q 0.6488583252696905 -0.7493726027030799 0.6664690632334932 -0.7513377765809532 Q 0.684079801197296 -0.7533029504588264 0.7181995369037464 -0.7676153099890359 Q 0.7200438469419328 -0.7683889510447229 0.7223647701089938 -0.7628560209301634 Q 0.7246856932760548 -0.7573230908156039 0.7228413832378684 -0.7565494497599169 Q 0.6905659575696045 -0.7430107312853944 0.6708138816408027 -0.7358096552197742 L 0.5901995744518462 -0.7030784243164829 L 0.5214247685476958 -0.6731447297091273 Q 0.5033684886936742 -0.6644861641331641 0.47109306302541043 -0.6509474456586416 Q 0.46924875298722396 -0.6501738046029546 0.46692782982016295 -0.6557067347175141 Q 0.46460690665310195 -0.6612396648320735 0.4664512166912885 -0.6620133058877605 Q 0.4987266423595523 -0.675552024362283 0.5115470200258269 -0.6863519279032453 Q 0.5243673976921014 -0.6971518314442076 0.5242914301529301 -0.7128440023881207 Q 0.524215462613759 -0.7285361733320339 0.5126108467784539 -0.7562008239048315 L 0.33351294238691376 -1.1831585977450074 Q 0.3219083265516088 -1.210823248317805 0.31095990904724025 -1.2214124954180492 Q 0.30001149154287177 -1.2320017425182939 0.2835905758437871 -1.2310778769417325 Q 0.26716966014470245 -1.2301540113651712 0.23581638949553185 -1.2170021134184923 Q 0.2330499244382521 -1.2158416518349617 0.23072900127119111 -1.2213745819495212 Q 0.2284080781041301 -1.2269075120640807 0.23117454316140987 -1.2280679736476112 L 0.281357734720289 -1.248034127132067 Q 0.3245505066542656 -1.2639835613746815 0.3503708471888767 -1.2748145361542993 Q 0.38541273791442027 -1.2895137162123524 0.4307468478133959 -1.3106990526427138 L 0.4810785533356813 -1.3328963366931996 Q 0.4829228633738677 -1.3336699777488867 0.4852437865409287 -1.328137047634327 Q 0.4875647097079897 -1.3226041175197676 0.48572039966980324 -1.3218304764640805 Q 0.4525228189824462 -1.3079049374617147 0.4391671068249219 -1.2957960583738155 Q 0.4258113946673976 -1.2836871792859166 0.42542628469702215 -1.2678015980780817 Q 0.42504117472664676 -1.2519160168702468 0.43664579056195174 -1.224251366297449 L 0.5151703577141821 -1.0370538974215189 L 0.8130264288813026 -1.1619969279149691 L 0.7345018617290722 -1.3491943967908995 Q 0.7228972458937672 -1.376859047363697 0.711755418125477 -1.387909371973488 Q 0.7006135903571867 -1.3989596965832793 0.6826160318655405 -1.3979166777244993 Q 0.6646184733738942 -1.3968736588657196 0.6304987376674438 -1.38256129933551 Q 0.6277322726101641 -1.3814008377519795 0.6254113494431031 -1.3869337678665388 Q 0.623090426276042 -1.3924666979810985 0.6258568913333219 -1.393627159564629 L 0.6714293077967347 -1.411659210409867 Q 0.7183106998070844 -1.4291559267638556 0.7551969005708145 -1.4446287478775957 Q 0.7800950860863323 -1.45507290212937 0.8254291959853078 -1.4762582385597316 L 0.8766830565266864 -1.4988423431380609 Q 0.8794495215839662 -1.5000028047215914 0.8817704447510272 -1.4944698746070317 Q 0.8840913679180882 -1.4889369444924723 0.8813249028608084 -1.4877764829089417 Q 0.8499716322116379 -1.4746245849622628 0.8368835872997386 -1.463170193647832 Q 0.8237955423878391 -1.4517158023334016 0.8241391771726352 -1.4366781191629567 Q 0.8244828119574312 -1.4216404359925119 0.8360874277927361 -1.3939757854197143 L 1.0151853321842763 -0.9670180115795386 Q 1.0267899480195815 -0.939353361006741 1.037470698278325 -0.9281096261330282 Q 1.0481514485370687 -0.9168658912593152 1.0648400314817783 -0.9184442446093449 Q 1.0815286144264877 -0.9200225979593746 1.1138040400947515 -0.9335613164338972 Q 1.1165705051520312 -0.9347217780174276 1.1188914283190923 -0.929188847902868 M 1.8860650851848315 -1.0644702364303231 Q 1.8870522437748742 -1.0585520003824702 1.8821203804016635 -1.0577293682241011 Q 1.8623929269088209 -1.054438839590625 1.8206362217105034 -1.0495014748096094 Q 1.7769067711629019 -1.0442350571652461 1.7581656903447012 -1.0411090549634439 Q 1.7335063734786478 -1.0369958941715987 1.6983260100548785 -1.0291001972820573 Q 1.6651183919803934 -1.0215335532558636 1.6453909384875507 -1.0182430246223875 Q 1.641445447788982 -1.0175849188956922 1.6404582891989392 -1.023503154943545 Q 1.6394711306088965 -1.0294213909913978 1.6434166213074648 -1.030079496718093 Q 1.6690623108481604 -1.0343571839416121 1.6795007012323393 -1.0416742876163927 Q 1.6899390916165178 -1.0489913912911732 1.6876357215730846 -1.062800608736163 Q 1.6848387722346296 -1.0795689442050795 1.6585302614748347 -1.1157333225572887 L 1.522219584818922 -1.300828971964851 L 1.3466452487326213 -1.2715432671269133 L 1.3024434386058172 -1.1050013805592573 Q 1.2943918603540099 -1.074257729382876 1.298505021145855 -1.0495984125168225 Q 1.304427972686112 -1.0140889962297055 1.3328710045229628 -0.9985569667445449 Q 1.3613140363598135 -0.9830249372593842 1.4037280613694254 -0.9900995738213578 Q 1.4086599247426361 -0.9909222059797269 1.409647083332679 -0.9850039699318741 Q 1.4106342419227218 -0.9790857338840213 1.405702378549511 -0.9782631017256522 Q 1.3879476704059526 -0.9753016259555237 1.3540819466047724 -0.9716804726278985 Q 1.3162707321050235 -0.9674012135735781 1.2886522972150436 -0.9627944734867115 Q 1.262020234999706 -0.9583522598315187 1.2248671262266524 -0.9501275100786297 Q 1.1916595081521673 -0.942560866052436 1.1709456819846824 -0.9391058109872861 Q 1.1670001912861139 -0.9384477052605908 1.166013032696071 -0.9443659413084436 Q 1.1650258741060282 -0.9502841773562964 1.1689713648045967 -0.9509422830829917 Q 1.1965897996945765 -0.9555490231698583 1.2134388265485283 -0.9700183111300452 Q 1.2302878534024801 -0.9844875990902322 1.2441754044863036 -1.0167115951939776 Q 1.2580629555701268 -1.048935591297723 1.2741661120737415 -1.1104228936504859 L 1.4097298745626792 -1.6166248951280018 Q 1.4112090406169422 -1.6199130660152758 1.418113649339437 -1.6210647510369927 Q 1.4260046307365744 -1.622380962490383 1.4274845827062377 -1.6195863708981304 L 1.7550247557502856 -1.1754226228926505 Q 1.8012291760116006 -1.111148588101642 1.8283579611835625 -1.0883006338148018 Q 1.8554867463555245 -1.0654526795279617 1.880146063221578 -1.069565840319807 Q 1.8850779265947888 -1.070388472478176 1.8860650851848315 -1.0644702364303231 M 1.3548613534161025 -1.3013005456286526 L 1.5038036272870654 -1.3261440368113977 L 1.3988986371112326 -1.4688288048709508 L 1.3548613534161025 -1.3013005456286526 M 2.3999681321569 -1.0637377022869403 Q 2.403820485098948 -1.0493794511117487 2.417869032625763 -1.0432241028367253 Q 2.4319175801525774 -1.0370687545617019 2.4638129330811456 -1.0344829352404667 Q 2.4668031224181988 -1.034240514679101 2.466318281295467 -1.0282601360049946 Q 2.4658334401727355 -1.022279757330888 2.4628432508356823 -1.0225221778922537 Q 2.4299511681280963 -1.0251888040672774 2.4110941091805476 -1.0277208640682785 L 2.335423452828987 -1.0348589147352294 L 2.261584642327884 -1.0398418921365677 Q 2.24156923989374 -1.040461299433322 2.207680427407136 -1.0432087324621342 Q 2.205686967849101 -1.0433703461697115 2.2061718089718325 -1.049350724843818 Q 2.206656650094564 -1.0553311035179245 2.2086501096525994 -1.0551694898103474 Q 2.240545462581168 -1.0525836704891123 2.2559004435353773 -1.0563552165773722 Q 2.2712554244895866 -1.0601267626656319 2.277909137654119 -1.0741349067655521 Q 2.2845628508186513 -1.0881430508654724 2.286987056432309 -1.1180449442360052 L 2.324400629736429 -1.5795308319212271 Q 2.3268248353500867 -1.6094327252917597 2.3224741175185293 -1.6238313798938457 Q 2.3181233996869723 -1.6382300344959315 2.303616890697543 -1.6449241510873582 Q 2.289110381708114 -1.6516182676787847 2.257215028779546 -1.6542040870000199 Q 2.25522156922151 -1.6543657007075971 2.2557064103442417 -1.6603460793817035 Q 2.2561912514669733 -1.6663264580558101 2.2581847110250086 -1.6661648443482329 L 2.311927312238179 -1.6608045444646309 Q 2.357615268365419 -1.6550939696323201 2.385523702177916 -1.6528313777262393 Q 2.4164223253274666 -1.6503263652587927 2.462433508869861 -1.648602709542553 L 2.5133475344535547 -1.6454782897783524 Q 2.516337723790608 -1.6452358692169866 2.5158528826678763 -1.63925549054288 Q 2.515368041545145 -1.6332751118687736 2.5123778522080915 -1.6335175324301394 Q 2.4814792290585412 -1.6360225448975858 2.466043441250543 -1.6312542690303082 Q 2.450607653442545 -1.6264859931630307 2.444452305167522 -1.612437445636216 Q 2.4382969568924984 -1.5983888981094014 2.4358727512788407 -1.5684870047388688 L 2.3986207916822977 -1.1089945766116824 Q 2.3961157792148513 -1.078095953462132 2.3999681321569 -1.0637377022869403 M 2.68802465973605 -1.449069548939228 Q 2.6863464477731624 -1.446389324208423 2.681604725253403 -1.4480524740951173 Q 2.6768630027336444 -1.4497156239818119 2.6775693260810023 -1.4526312898284028 Q 2.6908745251745576 -1.4905650699864736 2.710684479104611 -1.5511027914937219 Q 2.7304944330346648 -1.61164051300097 2.738028548739812 -1.6427409486979416 Q 2.7392057543187414 -1.6476003917755935 2.7445511417041586 -1.6463054656387712 Q 2.7498965290895754 -1.645010539501949 2.748719323510646 -1.6401510964242974 Q 2.743539618963357 -1.6187695468826293 2.7989372700485875 -1.6053494032828357 Q 2.8818133676368407 -1.5821858014786612 2.9935805584228317 -1.5551100731632879 Q 3.0509219867391226 -1.5412190473319223 3.1155375175956976 -1.5276237109211168 L 3.1818613845675476 -1.5125856036632088 Q 3.2187931519577013 -1.5036388412633463 3.2369784083084117 -1.5043780648147456 Q 3.2551636646591224 -1.505117288366145 3.263554724473562 -1.5185184120201711 Q 3.265468377552236 -1.5221705253665068 3.2708137649376527 -1.5208755992296843 Q 3.2761591523230695 -1.5195806730928623 3.275217387859926 -1.515693118630741 Q 3.2652384885397594 -1.4872427835121877 3.2462977647435367 -1.4239221787924348 Q 3.227357040947314 -1.3606015740726818 3.21793939631588 -1.3217260294514674 Q 3.217233072968522 -1.3188103636048765 3.2123736298908705 -1.3199875691838057 Q 3.207514186813219 -1.3211647747627349 3.207248621545046 -1.324315881725112 Q 3.2107992582276017 -1.4026829218577372 3.1800163079486126 -1.4497537193028758 Q 3.1492333576696234 -1.4968245167480148 3.0909200407378017 -1.510950983695166 Q 3.0627352708874214 -1.5177787760529557 3.05055931509256 -1.5078668589587918 Q 3.0383833592976983 -1.497954941864628 3.0301429202451935 -1.4639388403210656 L 2.921604565867914 -1.0158981885615717 Q 2.914305891278553 -0.9857696414801306 2.916841047350733 -0.9707505541679904 Q 2.9193762034229134 -0.9557314668558503 2.934721104308 -0.946869524809839 Q 2.950066005193087 -0.9380075827638277 2.98602588396771 -0.9292962614797511 Q 2.988941549814301 -0.9285899381323934 2.987528903119586 -0.9227586064392114 Q 2.9861162564248707 -0.9169272747460292 2.9832005905782797 -0.9176335980933867 Q 2.9482126004191866 -0.9261094782616776 2.928038380608835 -0.9320256303087109 L 2.8476070666356015 -0.9525391315344671 L 2.768648647661857 -0.970637973297591 Q 2.7480035456199334 -0.9746103481135637 2.7120436668453105 -0.9833216693976403 Q 2.709128000998719 -0.9840279927449979 2.7105406476934344 -0.98985932443818 Q 2.7119532943881497 -0.9956906561313621 2.7148689602347407 -0.9949843327840046 Q 2.7498569503938333 -0.9865084526157138 2.768042206744544 -0.9872476761671132 Q 2.7862274630952544 -0.9879868997185124 2.7959586352750967 -1.0005489173910946 Q 2.805689807454939 -1.0131109350636767 2.8127530409285146 -1.0422675935295873 L 2.9217622775373653 -1.492252022520142 Q 2.9297672754740844 -1.5252962354481743 2.9238455713237412 -1.539077868876611 Q 2.9179238671733985 -1.552859502305048 2.8907109859385485 -1.559451853547052 Q 2.775056240690436 -1.5874693463255687 2.68802465973605 -1.449069548939228 M 3.809724390438916 -1.076809468842883 Q 3.812568255879736 -1.0433705330142042 3.8262255367533706 -1.0120100693834053 Q 3.8398828176270055 -0.9806496057526066 3.865915862175594 -0.9322938347264799 Q 3.894503954621592 -0.8802676781290618 3.9093596629315077 -0.8448373531148781 Q 3.9242153712414236 -0.8094070281006943 3.926143636914409 -0.7690643485727504 Q 3.9280719025873934 -0.7287216690448064 3.906536147984115 -0.6892095028973099 Q 3.8816503871092154 -0.6435509997935361 3.837682860141156 -0.6213900753472736 Q 3.7937153331730964 -0.599229150901011 3.739484073109211 -0.603162397890869 Q 3.6852528130453255 -0.6070956448807271 3.6316918767120527 -0.6362885566762823 Q 3.592179710564556 -0.6578243112795608 3.5551375059270818 -0.6922499568885463 Q 3.5180953012896072 -0.7266756024975318 3.510347067834979 -0.7479820540634914 Q 3.507871116449993 -0.753887108232522 3.507350999244276 -0.758156707521954 Q 3.506830882038559 -0.7624263068113858 3.5106594606346975 -0.7694506919042741 L 3.584118315823115 -0.9104960625989804 L 3.584596888147632 -0.9113741107355915 Q 3.5865111774457015 -0.9148863032820356 3.591140704291015 -0.9129324657277545 Q 3.5957702311363287 -0.9109786281734736 3.5947339899748707 -0.9069878633025121 Q 3.5918825222776465 -0.8390697572337201 3.5934528570197375 -0.7949360507408616 Q 3.5950231917618285 -0.7508023442480031 3.6114372550639073 -0.7088282030904363 Q 3.6278513183659866 -0.6668540619328696 3.6664854363768717 -0.6457968796541084 Q 3.7016073618413134 -0.6266539866734164 3.734725918370322 -0.6330891411731039 Q 3.7678444748993307 -0.6395242956727913 3.7927302357742305 -0.6851827987765652 Q 3.813787418052992 -0.7238169167874506 3.8124583660981473 -0.7621246656237021 Q 3.811129314143303 -0.8004324144599535 3.797551129782092 -0.8340275466884917 Q 3.7839729454208806 -0.8676226789170298 3.7562629011114934 -0.9191702631899306 Q 3.7289523326142002 -0.9693612270017029 3.7162126481333884 -1.0013604526068542 Q 3.7034729636525765 -1.0333596782120054 3.701625791117003 -1.069672044612776 Q 3.69977861858143 -1.1059844110135466 3.719878656211156 -1.1428624327512102 Q 3.745242989410573 -1.189398983991595 3.789491347422091 -1.2068512850801203 Q 3.833739705433609 -1.2243035861686453 3.8842610316699915 -1.216697956982508 Q 3.9347823579063737 -1.2090923277963708 3.9813189091467587 -1.1837279945969539 Q 4.012050593928144 -1.1669779632388486 4.040549606736779 -1.144042046668254 Q 4.0690486195454145 -1.1211061300976597 4.0840585276302015 -1.1026751057287796 Q 4.090046671561631 -1.09485576226168 4.090527240511137 -1.0894688286733785 Q 4.091007809460642 -1.0840818950850768 4.087657803189021 -1.0779355581287997 L 4.0173076714849785 -0.9488624820469775 Q 4.015871954511426 -0.9462283376371444 4.010763855341595 -0.9473041270548144 Q 4.005655756171764 -0.9483799164724843 4.0062134250087045 -0.9514926332068347 L 4.008281914081645 -0.9720041263985828 Q 4.016480767110959 -1.0392854671180103 4.0081233368132505 -1.0939517580002254 Q 3.999765906515542 -1.1486180488824402 3.94708301831888 -1.1773323883534783 Q 3.9119610928544386 -1.1964752813341701 3.8785637019069594 -1.1884837684673077 Q 3.8451663109594802 -1.180492255600445 3.824109128680719 -1.1418581375895593 Q 3.806880524998096 -1.1102484046715622 3.809724390438916 -1.076809468842883 M 4.386901027075252 -0.3225147627290579 Q 4.389255738673754 -0.32065591004853555 4.3902885719989095 -0.31792951034884986 Q 4.391321405324066 -0.3152031106491641 4.390701787763892 -0.31441820678299714 Q 4.334522579408643 -0.25939188082371245 4.2948670555575 -0.20915803338902478 Q 4.289910115076108 -0.2028788024596888 4.285386742016997 -0.20199049160862664 Q 4.2808633689578865 -0.20110218075756442 4.273799234162384 -0.20667873879913135 L 3.926871725316572 -0.4805497003960832 Q 3.924517013718071 -0.48240855307660546 3.928234719079115 -0.4871179762736074 Q 3.93195242444016 -0.4918273994706094 3.934307136038661 -0.4899685467900871 Q 3.959424059756005 -0.47014078486451594 3.973903253616297 -0.46508084957282647 Q 3.9883824474765888 -0.460020914281137 4.001291421429948 -0.46830393253968794 Q 4.014200395383307 -0.4765869507982389 4.03278892218853 -0.5001340667832488 L 4.319671852549138 -0.8635445568185677 Q 4.338260379354361 -0.8870916728035775 4.343010505865964 -0.901178414730786 Q 4.347760632377566 -0.9152651566579943 4.339394970966019 -0.9288763913245244 Q 4.331029309554472 -0.9424876259910543 4.306697289703295 -0.9616957703564514 Q 4.3043425781047935 -0.9635546230369736 4.308060283465839 -0.9682640462339756 Q 4.311777988826883 -0.9729734694309776 4.314132700425383 -0.9711146167504554 L 4.64693193968019 -0.7083967712366372 Q 4.65478097834186 -0.7022005956348962 4.6492044203002925 -0.6951364608393933 L 4.568365092529472 -0.5895050115188347 Q 4.567125857409123 -0.5879352037865007 4.562189268585031 -0.5905581965012913 Q 4.557252679760938 -0.5931811892160819 4.558326628575293 -0.5961555183747569 Q 4.581705985206719 -0.6515938235752282 4.569228929977248 -0.6971165991145198 Q 4.5567518747477775 -0.7426393746538115 4.508087835045424 -0.7810556633846056 L 4.484540719060414 -0.7996441901898286 Q 4.460993603075404 -0.8182327169950516 4.4419499206668025 -0.816703612577318 Q 4.422906238258202 -0.8151745081595845 4.406176564133501 -0.7939821037730757 L 4.279774581857985 -0.6338617150750085 L 4.344921602749845 -0.5824334575805583 Q 4.390446026987531 -0.5464956390904605 4.42717039804219 -0.5429855720484035 Q 4.463894769096848 -0.5394755050063462 4.486201001263116 -0.567732044188358 Q 4.488059853943638 -0.570086755786859 4.492376825207557 -0.5666788592059016 Q 4.496693796471475 -0.5632709626249439 4.494834943790953 -0.5609162510264429 L 4.438284459509117 -0.4908945206315875 L 4.409327720486927 -0.4525995174953976 Q 4.389830531173342 -0.4246735509253715 4.37743817996986 -0.4089754736020317 Q 4.376198944849512 -0.4074056658696976 4.37148952165251 -0.4111233712307423 Q 4.366780098455508 -0.4148410765917868 4.368019333575856 -0.4164108843241209 Q 4.393423653542994 -0.4485919428369677 4.383260194422825 -0.48655513683737617 Q 4.373096735302656 -0.5245183308377848 4.326787407198803 -0.5610757668880566 L 4.26242529017311 -0.6118844068223327 L 4.122391721573763 -0.4344961330685917 Q 4.104422812328714 -0.4117339209497488 4.104382109014114 -0.39392947366149583 Q 4.104341405699514 -0.3761250263732428 4.123179098487522 -0.36125420492906446 L 4.149080926071032 -0.3408068254433192 Q 4.2103034276320574 -0.2924766557497394 4.267021671267478 -0.2884715541389006 Q 4.323739914902898 -0.2844664525280618 4.3825221764902365 -0.3234234252374203 Q 4.3837614116105845 -0.32499323296975424 4.386901027075252 -0.3225147627290579 M 4.819620376806461 0.3828630759851466 Q 4.815094411526988 0.3868020654861485 4.8137814150266545 0.3852934103929907 L 4.696924726496931 0.25102310710195314 Q 4.682481764993257 0.23442790107721811 4.705323892575994 0.13500714264371005 Q 4.728166020158731 0.03558638421020199 4.784004145788209 -0.12569319827371514 Q 4.7779978322402945 -0.13107132039617905 4.76815035848779 -0.142386233594862 Q 4.742546926731277 -0.17180500791143766 4.732797282275184 -0.18453074690686644 L 4.557793291468888 -0.03222315286812591 Q 4.534409137524944 -0.011871707112949381 4.527131043123674 0.0010909061222827143 Q 4.519852948722406 0.014053519357514838 4.525600535616932 0.028273760033743267 Q 4.531348122511459 0.042494000709971724 4.552356066516802 0.06663248220049534 Q 4.553669063017137 0.06814113729365306 4.549143097737663 0.07208012679465498 Q 4.544617132458191 0.07601911629565689 4.5433041359578565 0.07451046120249916 Q 4.521639693702346 0.04961765216539668 4.509920554495752 0.034628930530231306 L 4.46078101502964 -0.023356461259929295 L 4.412102315220872 -0.07776587391001931 Q 4.398218022670953 -0.09219592659142958 4.375897082165276 -0.11784306317511092 Q 4.373927587414774 -0.12010604581484752 4.378453552694247 -0.12404503531584943 Q 4.3829795179737205 -0.12798402481685134 4.384949012724221 -0.12572104217711474 Q 4.405956956729565 -0.10158256068659113 4.419247819089881 -0.09392730251203255 Q 4.432538681450196 -0.08627204433747396 4.447087171251508 -0.09164246745871149 Q 4.46163566105282 -0.09701289057994902 4.484265487450186 -0.11670783808495858 L 4.8335191415161995 -0.42066652791227266 Q 4.856148967913565 -0.4403614754172822 4.863427062314835 -0.45332408865251433 Q 4.870705156716104 -0.4662867018877464 4.865006484469783 -0.48121235546234775 Q 4.859307812223462 -0.49613800903694916 4.8389563664682855 -0.5195221629808939 Q 4.837643369967951 -0.5210308180740516 4.842169335247425 -0.5249698075750535 Q 4.846695300526898 -0.5289087970760554 4.848008297027231 -0.5274001419828978 L 4.882048376739503 -0.486764283764051 Q 4.910738641154026 -0.4507522201210893 4.928464093908535 -0.43038537636345997 Q 4.9475025431633775 -0.408509877512673 4.972742964558959 -0.38407790813291376 Q 4.980718772857374 -0.3764368033707132 4.9929618197818755 -0.3638925695557501 Q 5.005204866706377 -0.35134833574078694 5.020960824710384 -0.3332444746228943 Q 5.081358663725747 -0.2638463403376389 5.0892418525487875 -0.20376010785481224 Q 5.097125041371829 -0.14367387537198573 5.051865388577097 -0.10428398036196662 Q 5.017166321434469 -0.07408506085428529 4.9671026134734815 -0.06763330565148007 Q 4.917038905512493 -0.061181550448674904 4.8678839680439285 -0.07805733554038213 Q 4.825358557188351 0.06500764770696704 4.807580456015352 0.152729874757371 Q 4.789802354842354 0.24045210180777504 4.793187885210637 0.2938472156678037 Q 4.796573415578921 0.3472423295278324 4.8228333455856 0.3774154313909869 Q 4.8241463420859345 0.37892408648414466 4.819620376806461 0.3828630759851466 M 4.789732369449341 -0.157192205459467 Q 4.813366306455353 -0.13003641378262792 4.835450372721227 -0.12141701605630864 Q 4.857534438987101 -0.11279761832998936 4.884138016121317 -0.12335695939199876 Q 4.9107415932555325 -0.13391630045400815 4.9477036430378964 -0.16608471471219038 Q 5.009558501857364 -0.21991757122588318 5.0171866977973005 -0.2583728780989525 Q 5.024814893737238 -0.2968281849720217 4.995272472479724 -0.3307729245680705 Q 4.972951531974046 -0.35642006115175184 4.952445643273025 -0.35713317305135117 Q 4.931939754572005 -0.3578462849509505 4.905538290441744 -0.33486884619510604 L 4.754672781125971 -0.20356919616170902 Q 4.767411428943664 -0.18283934204314836 4.789732369449341 -0.157192205459467 M 5.64495067549394 0.623238085751703 Q 5.63972421624348 0.626184969479183 5.63825077437974 0.6235717398539533 Q 5.620569472014861 0.5922129843511961 5.576487162177937 0.5791841716868948 Q 5.532404852341013 0.5661553590225936 5.475543773328611 0.5752557817350477 L 4.954369713443478 0.6567333817417247 Q 4.950394259988592 0.6578268943516348 4.945482787109459 0.6491161289342021 Q 4.940571314230326 0.6404053635167696 4.943564473109386 0.637569697823373 L 5.289574323774591 0.14973449691773716 Q 5.312092428094909 0.11637381680147907 5.318495616392975 0.09209936151161735 Q 5.324898804691043 0.06782490622175563 5.31409356435695 0.04866122230340397 Q 5.31262012249321 0.04604799267817422 5.3178465817436695 0.0431011089506943 Q 5.323073040994129 0.04015422522321438 5.324546482857869 0.04276745484844413 Q 5.331913692176569 0.055833602974593 5.333989499362305 0.06155120951296589 Q 5.342070292037085 0.07995503492365763 5.357787005250311 0.10782948425944186 Q 5.400025672010857 0.18274206684936192 5.431236662369143 0.23402436477813066 Q 5.439966095517499 0.24747044215810943 5.451753630427419 0.26837627915994755 Q 5.453227072291158 0.27098950878517736 5.448000613040699 0.2739363925126573 Q 5.442774153790239 0.2768832762401372 5.441300711926499 0.2742700466149074 Q 5.4265662932891 0.24813775036260974 5.407573906266739 0.2399043285227625 Q 5.388581519244379 0.2316709066829152 5.368546758784284 0.24296729430492156 Q 5.353738457574648 0.25131679819944797 5.338235240739857 0.2726861750685434 L 5.1017764776456 0.6046157660301414 L 5.4644048788922674 0.5493921967024965 Q 5.493706494940213 0.5443508380583562 5.511128025775077 0.5345278923000898 Q 5.538131398569118 0.5193023263747769 5.544724551494101 0.4943467591700869 Q 5.551317704419083 0.46939119196539686 5.5341275493421165 0.4389035130043829 Q 5.532654107478376 0.43629028337915315 5.537880566728836 0.43334339965167323 Q 5.543107025979296 0.4303965159241933 5.544580467843035 0.43300974554942306 L 5.567775608409045 0.476183643382756 Q 5.586661641417918 0.5137511527117994 5.6028695019190575 0.5424966785893268 Q 5.61220130038941 0.5590471328824488 5.62769557753447 0.5824549814754333 L 5.648703692880659 0.6176779723989935 Q 5.650177134744399 0.6202912020242232 5.64495067549394 0.623238085751703 M 5.215051818091679 1.1534294654469097 Q 5.203653683468759 1.162973182077122 5.20399100191406 1.178307334034973 Q 5.204328320359362 1.1936414859928237 5.215422815882747 1.2236566849607067 Q 5.216462924838064 1.2264706098639457 5.210835075031587 1.2285508277745802 Q 5.2052072252251085 1.230631045685215 5.204167116269791 1.227817120781976 Q 5.192725917761301 1.1968639468463464 5.187076536012038 1.1786957194740604 L 5.161665084111745 1.1070629189402326 L 5.135071088246173 1.0379994743121088 Q 5.1271990535763114 1.0195866779422877 5.115411152082715 0.9876955290389122 Q 5.114717746112504 0.9858195791034194 5.120345595918982 0.9837393611927849 Q 5.125973445725459 0.9816591432821503 5.1266668516956715 0.983535093217643 Q 5.1377613472190555 1.013550292185526 5.1476517668343735 1.0258864017761922 Q 5.157542186449692 1.0382225113668586 5.173049689900096 1.03835418040543 Q 5.1885571933504995 1.0384858494440012 5.21669644238289 1.0280847598908283 L 5.650978852449446 0.8675612777868593 Q 5.679118101481836 0.8571601882336864 5.690342884612203 0.8471474841196008 Q 5.70156766774257 0.8371347800055152 5.701525985288589 0.8211582890712383 Q 5.701484302834608 0.8051817981369616 5.690389807311223 0.7751665991690786 Q 5.689696401341012 0.7732906492335859 5.69532425114749 0.7712104313229513 Q 5.700952100953968 0.7691302134123167 5.701645506924179 0.7710061633478094 L 5.719429493152144 0.8220035145912177 Q 5.7335018805315165 0.865843769077761 5.743209564114478 0.8921070681746586 Q 5.753957356652757 0.9211842921747951 5.771781643903115 0.9636377347209154 L 5.790401471111255 1.011127755090873 Q 5.791441580066572 1.013941679994112 5.785813730260094 1.0160218979047466 Q 5.780185880453616 1.0181021158153813 5.779145771498299 1.0152881909121423 Q 5.76839797896002 0.9862109669120056 5.757569584376956 0.974221560306445 Q 5.746741189793891 0.9622321537008846 5.73140703783604 0.9625694721461864 Q 5.716072885878189 0.9629067905914883 5.687933636845799 0.9733078801446612 L 5.255527176714735 1.1331379562784187 Q 5.2264499527145984 1.1438857488166974 5.215051818091679 1.1534294654469097 M 5.954179155186647 1.672340459730711 Q 5.956041031336888 1.7208871734938607 5.94945205252265 1.7496896969629168 Q 5.948237096101679 1.759098409993674 5.94430125208868 1.7624164111849543 Q 5.940365408075681 1.7657344123762346 5.929954595972014 1.7698105614586603 L 5.795849724267794 1.8082928091216361 Q 5.79290561471647 1.8088691934984207 5.790963604238055 1.8041544723718084 Q 5.789021593759639 1.799439751245196 5.79275494503581 1.7976898688923755 Q 5.863750806950459 1.7491451720553768 5.894998407360536 1.6849455811796388 Q 5.9262460077706125 1.6207459903039005 5.911836398351001 1.5471432515207937 Q 5.892815713917115 1.4499876363270927 5.810800796052772 1.411019017571677 Q 5.728785878188427 1.3720503988162613 5.6080773865841325 1.3956821582644232 Q 5.517791360343521 1.413357945819146 5.44887503141502 1.4569100939523738 Q 5.379958702486519 1.5004622420856015 5.346566598861198 1.5615152306731868 Q 5.313174495235876 1.6225682192607722 5.326239207776324 1.689301369090789 Q 5.338535407814392 1.7521090395190402 5.38994609680069 1.7935027716285528 Q 5.441356785786989 1.8348965037380651 5.534421087799186 1.8574361508289734 Q 5.538538695326546 1.8576490081770356 5.538614030166876 1.8632386704800583 Q 5.538689365007206 1.8688283327830808 5.535745255455882 1.8694047171598653 L 5.399397033911926 1.8808135944841382 Q 5.3872363394554394 1.8811563922903933 5.383321224664908 1.8793754161038716 Q 5.379406109874375 1.8775944399173499 5.373751477342256 1.8695306237657563 Q 5.324266869099751 1.7885289352210982 5.306206825293838 1.6962801692796043 Q 5.282767193971272 1.5765530475257505 5.314609125418906 1.4867625056982054 Q 5.34645105686654 1.3969719638706604 5.412166177889026 1.344875679271852 Q 5.477881298911512 1.2927793946730435 5.557372256797268 1.2772170164998637 Q 5.650602392589203 1.2589648445683566 5.732136990139559 1.2954800386976686 Q 5.8136715876899165 1.3319952328269808 5.86935333644593 1.4082172300159301 Q 5.9250350852019436 1.4844392272048794 5.943863641510235 1.5806134725481389 Q 5.952317279036406 1.6237937459675615 5.954179155186647 1.672340459730711 M 5.525632645459215 2.4723467455015884 Q 5.525634839594277 2.475346744699217 5.524136668441347 2.477847841098105 Q 5.522638497288418 2.480348937496993 5.521638497555875 2.480349668875347 Q 5.443631204633996 2.470406719061528 5.379631221751255 2.470453527276182 Q 5.371631223890913 2.4704593783030138 5.368129030691952 2.467461938929624 Q 5.36462683749299 2.4644644995562346 5.364620255087804 2.455464501963349 L 5.364296985855351 2.0134646201794246 Q 5.3642947917202894 2.010464620981796 5.370294790115546 2.0104602327116723 Q 5.376294788510803 2.0104558444415486 5.376296982645865 2.0134558436391767 Q 5.376320386753192 2.045455835080547 5.381330990402039 2.059952174310648 Q 5.386341594050885 2.074448513540749 5.400845247064526 2.0794379072173306 Q 5.4153489000781665 2.0844273008939123 5.445348892054451 2.084405359543293 L 5.908348768221774 2.084066731365407 Q 5.938348760198059 2.0840447900147883 5.952345099561889 2.0790345520551186 Q 5.966341438925718 2.074024314095449 5.971830466779394 2.0590202955263597 Q 5.97731949463307 2.044016276957271 5.977296821904098 2.0130162852484434 Q 5.9772946277690355 2.010016286050815 5.983294626164292 2.010011897780691 Q 5.989294624559549 2.0100075095105674 5.989296818694611 2.013007508708196 L 5.989606923116693 2.43700739530635 Q 5.989614236900232 2.447007392631778 5.9806142393073465 2.4470139750369637 L 5.84761573763586 2.4491112478231267 Q 5.845615738170775 2.449112710579835 5.844611715857285 2.443613443429203 Q 5.843607693543795 2.438114176278572 5.84660696136307 2.437111982410967 Q 5.90459524379689 2.421069566745752 5.932567443930638 2.383049098315214 Q 5.9605396440643865 2.3450286298846756 5.96049429860644 2.283028646467021 L 5.960472357255821 2.2530286544907367 Q 5.9604504159052025 2.2230286625144524 5.94744018008519 2.2090381741774543 Q 5.934429944265178 2.1950476858404566 5.907429951486522 2.1950674330560136 L 5.703430006047787 2.1952166342402224 L 5.703490710451167 2.2782166120412763 Q 5.703533130395696 2.3362165965287596 5.723555797775526 2.3672019606705077 Q 5.743578465155355 2.3981873248122554 5.779578455526896 2.398160995191513 Q 5.782578454724525 2.398158801056451 5.782582477305472 2.4036587995854366 Q 5.782586499886419 2.409158798114422 5.77958650068879 2.409160992249484 L 5.689585793381583 2.408226816568798 L 5.641586537597881 2.4092619224623313 Q 5.607588009448134 2.4112867887914518 5.587588014797277 2.4113014163585307 Q 5.585588015332192 2.411302879115239 5.585583627062068 2.405302880719982 Q 5.5855792387919445 2.399302882324725 5.58757923825703 2.399301419568017 Q 5.628579227291286 2.3992714330555045 5.652056182587891 2.3677542540890877 Q 5.675533137884498 2.336237075122671 5.6754899865616135 2.2772370909026445 L 5.675430013536588 2.1952371128341337 L 5.449430073981913 2.19540240434213 Q 5.4204300817381705 2.195423614314395 5.406438130644465 2.2064338506693213 Q 5.392446179550759 2.217444087024248 5.392463732631254 2.2414440806052753 L 5.392487868116935 2.2744440717791883 Q 5.3925449156285445 2.352444050917528 5.424579281852551 2.3994206342397133 Q 5.456613648076558 2.446397217561899 5.523629720480713 2.4683482093281253 Q 5.525629719945798 2.4683467465714175 5.525632645459215 2.4723467455015884 M 5.78220157138373 2.816406146398409 Q 5.751495658025027 2.8299485569965173 5.726265163123552 2.853044490123946 Q 5.701034668222077 2.8761404232513743 5.6637453341300406 2.9164579822421235 Q 5.623813524618006 2.9603834940671963 5.595122415988236 2.985933842119516 Q 5.566431307358465 3.0114841901718363 5.528898196790722 3.026401147338418 Q 5.491365086222981 3.0413181045049997 5.447002371324075 3.0337716134794683 Q 5.395738789663118 3.025051223849965 5.360507940669989 2.990655914878779 Q 5.325277091676861 2.9562606059075924 5.311396874355492 2.903688374006031 Q 5.297516657034124 2.851116142104469 5.307746344868733 2.7909800174637303 Q 5.315292835894265 2.746617302564825 5.335833102482873 2.7004074827375533 Q 5.356373369071481 2.6541976629102813 5.374011837314095 2.639953912068094 Q 5.37879368875239 2.635695520726041 5.382663371634835 2.6338178747558656 Q 5.386533054517279 2.6319402287856897 5.394419759388196 2.6332818271902285 L 5.551671118099364 2.6569885811538465 L 5.552656956208228 2.657156280954414 Q 5.556600308643686 2.6578270801566832 5.556254728695282 2.66284012060129 Q 5.555909148746878 2.667853161045896 5.5517980965108515 2.6681681999524915 Q 5.486630977853093 2.6875136553838193 5.445395884203473 2.7033224204117117 Q 5.404160790553854 2.7191311854396045 5.369785842277207 2.7482793059789783 Q 5.33541089400056 2.7774274265183525 5.328032102775596 2.8208043033083934 Q 5.321324110752902 2.860237827662976 5.338159435278738 2.889475164205653 Q 5.354994759804574 2.91871250074833 5.4062583414655325 2.9274328903778333 Q 5.449635218255573 2.9348116816027976 5.485438021959167 2.9211219318986616 Q 5.521240825662762 2.9074321821945257 5.548610696582533 2.8836858105593675 Q 5.575980567502304 2.8599394389242088 5.615744677213772 2.816999765208001 Q 5.654355249015807 2.7748782298000902 5.680487732125862 2.752442915527661 Q 5.706620215235918 2.7300076012552323 5.7403674928215 2.716475371004394 Q 5.774114770407081 2.702943140753556 5.815519970979393 2.709986532377385 Q 5.867769390749215 2.7188746218074558 5.898637637805467 2.7550637268485336 Q 5.929505884861719 2.791252831889612 5.9387084613396155 2.84150780762504 Q 5.947911037817511 2.891762783360468 5.939022948387441 2.94401220313029 Q 5.9331534553675835 2.97851653694055 5.920708314839539 3.0129166601559865 Q 5.908263174311493 3.047316783371423 5.89570123571923 3.0674959235613373 Q 5.890248585078666 3.075697667338849 5.885309214187073 3.0779005325628894 Q 5.8803698432954805 3.08010339778693 5.873468976533428 3.0789294991829586 L 5.728550774530337 3.0542776284995554 Q 5.725593260203743 3.0537745290978533 5.724953002043283 3.0485937888526795 Q 5.724312743882823 3.0434130486075053 5.727437958009984 3.042930309900343 L 5.74751048048295 3.0382299012402063 Q 5.813810776355602 3.0241490359543364 5.86280559646465 2.9985022505323378 Q 5.911800416573698 2.9728554651103387 5.921862404607739 2.9137051785784647 Q 5.928570396630434 2.8742716542238824 5.9101724650410175 2.8452756870347864 Q 5.8917745334516 2.8162797198456904 5.848397656661559 2.808900928620726 Q 5.812907484742435 2.802863735800301 5.78220157138373 2.816406146398409" fill="#212245" fill-rule="nonzero"></path></g><g><path d=" M -0.2904152912119246 4.823431114253854 Q -0.29522149126573827 4.857766233898945 -0.28775081730936386 4.890222959405957 Q -0.28028014335298934 4.9226796849129695 -0.26317263875976626 4.977527960059895 Q -0.24446658597083748 5.035104722638716 -0.2364791227256574 5.070007450768575 Q -0.22849165948047728 5.104910178898435 -0.23447465966643144 5.142866781865177 Q -0.24045765985238554 5.1808233848319185 -0.2700987733022855 5.21468197891747 Q -0.3017159609821787 5.250797812608726 -0.3454628428177196 5.264333333642924 Q -0.3892097246532605 5.277868854677122 -0.439017495266614 5.264169001155001 Q -0.4888252658799674 5.250469147632881 -0.5377321240035422 5.207654205983025 Q -0.5956679405499308 5.156934967413196 -0.6207681861216823 5.088444255106799 Q -0.6225541779011947 5.082893558451106 -0.6210480320640553 5.078895868528504 Q -0.619541886226916 5.0748981786059035 -0.6150247681488349 5.068220181580696 L -0.5352241080138525 4.957328997792169 Q -0.5333417555757625 4.953660653574566 -0.5285447915553083 4.9565310431276535 Q -0.5237478275348542 4.95940143268074 -0.5256301799729441 4.963069776898342 Q -0.5610173502623657 5.02778258999519 -0.5625393292995499 5.095561152828952 Q -0.5640613083367342 5.163339715662715 -0.5098875577998514 5.210765497182556 Q -0.4722668977047938 5.243700067682444 -0.42819462846426526 5.245733558275086 Q -0.38412235922373666 5.247767048867727 -0.3446008746238701 5.202622256753658 Q -0.31495976117397023 5.168763662668106 -0.3082712086820667 5.1307601988054135 Q -0.3015826561901631 5.09275673494272 -0.3088645671293937 5.057807145916908 Q -0.3161464780686243 5.022857556891097 -0.3339126740718452 4.968761694946073 Q -0.3509264568731649 4.915324524411046 -0.35778530031549327 4.881409833396183 Q -0.3646441437578216 4.84749514238132 -0.3578618694740147 4.810902783130525 Q -0.3510795951902077 4.774310423879731 -0.32275586456030336 4.741956656197981 Q -0.28982129406041457 4.704335996102924 -0.24649879915511302 4.695080649800374 Q -0.20317630424981148 4.685825303497825 -0.1596716434940515 4.7006524573894595 Q -0.11616698273829151 4.715479611281095 -0.08005114904703636 4.747096798960988 Q -0.0356587701348684 4.785959592150857 -0.007827398264548258 4.842221610776355 Q 0.0001653427139800545 4.855864047935828 -0.0077389542059931316 4.864893006358642 L -0.07822157394242935 4.9560313644472584 Q -0.08085633958242044 4.959041017254863 -0.08461840559192624 4.955747560204874 Q -0.08838047160143203 4.952454103154885 -0.08649811916334205 4.948785758937283 Q -0.058265471458666895 4.904390741158441 -0.05528816578030615 4.847854154323918 Q -0.0523108601019453 4.791317567489394 -0.10197013142742128 4.747843934429541 Q -0.1441052707338858 4.710957215469666 -0.18620410461109516 4.717296630756514 Q -0.22830293848830452 4.723636046043363 -0.2599201261681977 4.759751879734618 Q -0.28560909115811095 4.789095994608763 -0.2904152912119246 4.823431114253854 M -0.053824224785763264 5.514839311769912 Q -0.05685788428232197 5.530235639580756 -0.04505502626389779 5.544089972570724 Q -0.03325216824547361 5.557944305560691 -0.0016107377538629453 5.578987591341305 Q 0.0008872699165273779 5.580648903376617 -0.0024353541540957924 5.5856449187173975 Q -0.00575797822471899 5.590640934058178 -0.008255985895109313 5.588979622022866 Q -0.03323606259901246 5.572366501669751 -0.04767033794291717 5.561565960234418 L -0.1062360821303841 5.521415572841913 L -0.16424402922779857 5.48403806525321 Q -0.17978584592857766 5.474902862264804 -0.20559859185594428 5.457735971233251 Q -0.20809659952633458 5.456074659197939 -0.2047739754557114 5.451078643857159 Q -0.20145135138508824 5.446082628516378 -0.19895334371469792 5.44774394055169 Q -0.16731191322308725 5.468787226332303 -0.14997134842029108 5.474314867087637 Q -0.1326307836174949 5.479842507842971 -0.11918875882764318 5.471368313512593 Q -0.10574673403779147 5.462894119182215 -0.08913361368467554 5.437914042478311 L 0.167262210431747 5.052388192014739 Q 0.18387533078486296 5.027408115310836 0.18621577033047132 5.012151236772506 Q 0.18855620987607974 4.996894358234176 0.17703023719687416 4.982623690632476 Q 0.1655042645176686 4.968353023030776 0.13386283402605792 4.947309737250163 Q 0.1313648263556676 4.945648425214851 0.13468745042629077 4.940652409874071 Q 0.138010074496914 4.93565639453329 0.14050808216730432 4.937317706568601 L 0.1807551034385756 4.965285139035488 Q 0.2146196694671656 4.990208845976777 0.23710173850067845 5.005160654294581 Q 0.2620818152045816 5.021773774647697 0.29816146394692045 5.0433668046951325 L 0.33785068812813923 5.068561357358218 Q 0.34034869579852955 5.070222669393529 0.33702607172790633 5.07521868473431 Q 0.3337034476572832 5.08021470007509 0.3312054399868929 5.078553388039778 Q 0.30039667871874565 5.058063872937602 0.28250234323751233 5.053368901405732 Q 0.2646080077562789 5.048673929873861 0.2511659829664272 5.0571481242042395 Q 0.2377239581765755 5.065622318534618 0.22111083782345953 5.090602395238521 L -0.03417744493608857 5.474462907255166 Q -0.0507905652892045 5.499442983959069 -0.053824224785763264 5.514839311769912 M 1.0369545212047004 5.415734260537707 Q 1.0345140888321938 5.421215527711929 1.031773455245082 5.4199953115256765 Q 0.9934045850255164 5.40291228491813 0.9666922482125327 5.416195773239716 Q 0.9399799113995491 5.429479261561302 0.9188294975044915 5.47698357707124 L 0.7044781874526578 5.958421543873883 Q 0.7036647099951555 5.960248632931958 0.6986902486212181 5.959128483817239 Q 0.6937157872472807 5.958008334702521 0.6927021756467083 5.955367768186945 L 0.4990251642039296 5.259423650287674 L 0.4948706507301053 5.246627556438542 L 0.3142786551646135 5.65224132733109 Q 0.2931282412695559 5.6997456428410285 0.30087719365984555 5.727825061226263 Q 0.30862614605013516 5.755904479611497 0.34608147174066334 5.772580767490292 Q 0.34882210532777513 5.773800983676546 0.34638167295526856 5.77928225085077 Q 0.3439412405827619 5.7847635180249934 0.34120060699565 5.78354330183874 Q 0.3183619937697182 5.773374833619962 0.3068926536209848 5.767173685617161 L 0.26162216589787224 5.745923204650568 L 0.2146246561882202 5.726093074013298 Q 0.20142829405294727 5.7213122763398205 0.1767625917689409 5.710330330663541 Q 0.17493550271086636 5.709516853206038 0.177375935083373 5.704035586031814 Q 0.17981636745587964 5.698554318857591 0.1816434565139542 5.6993677963150935 Q 0.22092587126255692 5.716857561651391 0.24652129418212776 5.703624106865572 Q 0.2721167171016986 5.690390652079754 0.29326713099675616 5.642886336569815 L 0.48362085605227456 5.215347496980371 Q 0.46263521365486077 5.166597083513737 0.42609343249336984 5.150327534363692 Q 0.42335279890625804 5.149107318177439 0.4257932312787647 5.143626051003215 Q 0.42823366365127136 5.1381447838289915 0.43097429723838315 5.139365000015244 L 0.46436870608401115 5.155327877508073 Q 0.47492450170370737 5.161122286782124 0.4941089368134901 5.169663800085897 Q 0.5142069164523101 5.178612052118421 0.527403278587583 5.1833928497918995 Q 0.5405996407228559 5.188173647465378 0.5479079969551541 5.191427557295387 Q 0.5552163531874523 5.194681467125395 0.5569901734884539 5.199302458527654 Q 0.5587639937894555 5.203923449929914 0.5611914852767403 5.21813989410837 Q 0.5648327225076677 5.239464560376055 0.5696941759248484 5.2580485930566265 L 0.7290214009049245 5.846749565860433 L 0.8978179733366343 5.467628586309965 Q 0.9189683872316918 5.420124270800027 0.912336348734815 5.391994818879025 Q 0.9057043102379383 5.363865366958024 0.86824898454741 5.347189079079228 Q 0.8664218954893355 5.346375601621726 0.8688623278618421 5.340894334447502 Q 0.8713027602343488 5.3354130672732785 0.8731298492924233 5.336226544730781 L 0.9083513471961258 5.353002899681112 Q 0.9349442056097418 5.36703215060172 0.95230155166145 5.374760186447991 Q 0.9687453531841209 5.38208148356551 0.998792255570816 5.393270033827471 L 1.0366543199900953 5.409032777177229 Q 1.0393949535772071 5.410252993363483 1.0369545212047004 5.415734260537707 M 1.5886055394837706 5.523856258963326 Q 1.6348458904579126 5.542398910925442 1.6598966219288913 5.564814549501421 Q 1.6679241168680623 5.570520627401484 1.6694816237658407 5.575427171222074 Q 1.6710391306636192 5.580333715042665 1.6698368608828986 5.591313448526423 L 1.658397485996982 5.703269425152146 Q 1.6578022884296453 5.7062097890506855 1.6528024823375227 5.705707853754881 Q 1.6478026762454 5.705205918459077 1.6474177525132232 5.7020671553714255 Q 1.6411318214855681 5.622233033148434 1.590056174567121 5.5746538539640245 Q 1.538980527648674 5.527074674779615 1.452729853291504 5.509615546137744 Q 1.3782406345284934 5.494537207765219 1.3157273476209779 5.51606251751952 Q 1.2532140607134623 5.537587827273822 1.2107279498927077 5.591224851681656 Q 1.1682418390719531 5.6448618760894895 1.1523699039429793 5.723271580050554 Q 1.1339187793555476 5.814422860905291 1.155979913446948 5.8994908123476595 Q 1.1780410475383485 5.984558763790028 1.2331126299573096 6.042639490454487 Q 1.2881842123762706 6.100720217118946 1.3626734311392812 6.1157985554914704 Q 1.4332421647042384 6.130083297107547 1.493025361548374 6.101883662799717 Q 1.5528085583925093 6.073684028491887 1.5965206882860796 5.998869259226937 Q 1.5971158858534162 5.995928895328397 1.6010363710514692 5.996722492084846 Q 1.6039767349500091 5.997317689652182 1.6062286390096803 5.998793808924476 Q 1.6084805430693514 6.0002699281967695 1.6080837446911271 6.002230170795796 L 1.5719429381282657 6.110206288993228 Q 1.567601905259893 6.121570946209164 1.5644572048492171 6.12450537278468 Q 1.5613125044385412 6.127439799360196 1.551697815986473 6.12957469185624 Q 1.4559477298440138 6.14896337421765 1.357935599892684 6.129123455306432 Q 1.2403210439510886 6.105315552612972 1.1710436400122084 6.041808534863048 Q 1.1017662360733285 5.978301517113123 1.0794015658752358 5.897253250463363 Q 1.0570368956771434 5.816204983813604 1.0735040283734536 5.734854915954 Q 1.0917567537717732 5.644683756398776 1.1562260808521398 5.583253260179027 Q 1.2206954079325065 5.5218227639592765 1.3109615646561101 5.499283443864167 Q 1.4012277213797137 5.476744123769057 1.4953193661329904 5.495790445923826 Q 1.5423651885096286 5.50531360700121 1.5886055394837706 5.523856258963326 M 2.2449902764982093 6.032121520938655 Q 2.247990143837146 6.032149733502894 2.2504806290981803 6.03317319975274 Q 2.252971114359214 6.034196666002586 2.252952305983054 6.036196577561877 Q 2.2433602401172066 6.099109153986827 2.2427113511396892 6.168106102782371 Q 2.2426361176350493 6.176105749019535 2.23910335774801 6.179572679590015 Q 2.2355705978609706 6.1830396101604945 2.2265709958441606 6.182954972467775 L 1.8075895241726718 6.179014617662271 Q 1.8055896126133806 6.1789958092861115 1.8056460377418604 6.172996074608237 Q 1.8057024628703402 6.166996339930364 1.8077023744296312 6.1670151483065245 Q 1.8457006940561624 6.167372507453563 1.8632469411403596 6.162537301846735 Q 1.8807931882245565 6.157702096239906 1.8874292615194121 6.143263864657565 Q 1.8940653348142678 6.128825633075224 1.8943474604566666 6.098826959685858 L 1.8987015995376888 5.635847433709964 Q 1.8989837251800876 5.6058487603205975 1.8926156712455109 5.59178825218304 Q 1.8862476173109344 5.577727744045482 1.8688001142015769 5.572063413966032 Q 1.8513526110922194 5.566399083886582 1.8133542914656882 5.566041724739543 Q 1.811354379906397 5.566022916363384 1.8114108050348767 5.56002318168551 Q 1.8114672301633565 5.554023447007637 1.8134671417226476 5.554042255383797 L 2.215449365140162 5.557822738991941 Q 2.224448967156972 5.557907376684661 2.2243643294642523 5.566906978701471 L 2.2252075258897084 5.689920347974034 Q 2.2251793133254685 5.692920215312972 2.2201748323332007 5.693373172262394 Q 2.215170351340933 5.693826129211818 2.2141986081255274 5.6908168576848 Q 2.2116971627548287 5.637790988799346 2.1829758686934664 5.6080195718454835 Q 2.154254574632104 5.578248154891621 2.1062566972091172 5.577796753863782 L 2.045259394650738 5.577223098390904 Q 2.0102609423631437 5.576893951808106 1.993709948964552 5.582238539492837 Q 1.9771589555659606 5.587583127177568 1.9705322864591848 5.601021402980264 Q 1.9639056173524092 5.614459678782959 1.9636517042742503 5.6414584848333895 L 1.9617426540940182 5.844449508101437 L 2.083737259210776 5.845596819047193 Q 2.131735136633763 5.846048220075031 2.1523846971257763 5.830241713456341 Q 2.1730342576177897 5.8144352068376515 2.173391616764828 5.77643688721112 Q 2.1734104251409883 5.774436975651829 2.1794101598188615 5.774493400780309 Q 2.185409894496735 5.774549825908789 2.1853910861205748 5.77654973746808 L 2.1836293911064524 5.85753675143129 Q 2.1833566696521336 5.886535469041012 2.18421556261058 5.901544209923775 L 2.1847641173623873 5.949551491534842 Q 2.184745308986227 5.9515514030941326 2.178745574308354 5.951494977965653 Q 2.1727458396304806 5.951438552837173 2.1727646480066403 5.949438641277882 Q 2.1731784322821586 5.905440586973477 2.1518580625932984 5.886239237116492 Q 2.130537692904438 5.8670378872595075 2.08053990392216 5.866567677855509 L 1.9615451661443388 5.865448579473994 L 1.9593822028859478 6.0954384087924725 Q 1.9591188856197088 6.123437170622548 1.9649963658525427 6.13649302088642 Q 1.9708738460853765 6.149548871150293 1.9868261176193056 6.1546991170578 Q 2.0027783891532347 6.159849362965307 2.0367768856611836 6.160169105360025 L 2.1167733480328286 6.1609214404064225 Q 2.1647712254558154 6.16137284143426 2.197089552799192 6.12767527894487 Q 2.2294078801425683 6.0939777164554805 2.240971645003467 6.0340838157456265 Q 2.240990453379627 6.032083904186335 2.2449902764982093 6.032121520938655 M 2.8855776669556525 5.938839490482586 Q 2.92776738141678 5.870147948108808 2.9435573854951627 5.818295505821055 Q 2.9593473895735456 5.766443063533304 2.9490469319479757 5.721611148866363 Q 2.937850782354965 5.67288080683708 2.904443365978983 5.650287787315959 Q 2.8710359496030002 5.6276947677948375 2.8213310007331316 5.639114840379709 Q 2.724844923515151 5.66128321657387 2.7158002375554227 5.791618145337766 Q 2.7162480835391434 5.793567359018938 2.7123496561768006 5.794463050986379 Q 2.709425835655044 5.79513481996196 2.7061661306454963 5.794344678676661 Q 2.7029064256359487 5.793554537391364 2.7036571094846744 5.792356007558918 L 2.7076304815047623 5.635482771107348 Q 2.7081572423616276 5.633309634434317 2.713741502976709 5.6330526648196715 Q 2.7193257635917902 5.632795695205026 2.718799002734925 5.634968831878057 Q 2.7189440108536402 5.640065789072846 2.720511471796662 5.646888036956946 Q 2.724542085650146 5.664430960087487 2.741110401940102 5.660624269225864 Q 2.750856470345959 5.658385039307261 2.7697557530552364 5.646860408594097 Q 2.7903803264538247 5.633913325056627 2.8075148610372187 5.62587232234487 Q 2.8246493956206127 5.6178313196331136 2.8480399597946686 5.6124571678284685 Q 2.910414797592151 5.598126096349414 2.9555505426779463 5.622641693742709 Q 3.0006862877637417 5.647157291136003 3.013002052316054 5.700760667368215 Q 3.022630740966043 5.742668761513398 3.005497198936499 5.788673562757636 Q 2.988363656906955 5.834678364001874 2.9509478367804 5.888421330092864 Q 2.9135320166538445 5.9421642961838534 2.8299289148354636 6.0516655352925754 Q 2.8267022564487014 6.055485047781773 2.8286120126933003 6.057098376975154 Q 2.830521768937899 6.058711706168535 2.8353948031408276 6.057592091209234 Q 2.965017512938721 6.027810333291825 3.013938731337079 6.012979136764904 Q 3.062859949735437 5.998147940237983 3.0795530491488976 5.981486894893458 Q 3.0962461485623582 5.964825849548933 3.0966535445556564 5.930872439874724 Q 3.0971803054125218 5.928699303201693 3.10216530111138 5.928066991662685 Q 3.1071502968102385 5.927434680123676 3.1075981427939587 5.9293838938048475 L 3.1177683990360876 6.031704790438768 Q 3.118664091003528 6.0356032178011105 3.117011304373575 6.039574149222811 Q 3.1153585177436214 6.0435450806445115 3.1114600903812786 6.044440772611952 L 2.774246123538639 6.121918127795587 Q 2.7693730893357107 6.123037742754889 2.766040880266806 6.119699122872197 Q 2.7627086711979008 6.1163605029895045 2.764736799752217 6.111790306651581 Q 2.843387952494525 6.007531032856363 2.8855776669556525 5.938839490482586 M 3.423959567281946 5.923051446361473 Q 3.3620887499302667 5.9140931005188975 3.3126316678699017 5.873148051562103 Q 3.2631745858095367 5.832203002605308 3.235807312685056 5.7645270662488 Q 3.2091898278653557 5.698705265134937 3.2168462119342194 5.6362822743143255 Q 3.2245025960030826 5.573859283493715 3.2635935097172335 5.52515198973813 Q 3.3026844234313844 5.476444695982545 3.3666520893026037 5.450576999467625 Q 3.4296926875525013 5.425084197105095 3.490912524017324 5.433766456213205 Q 3.552132360482147 5.442448715321315 3.6002874807687997 5.482841590809178 Q 3.6484426010554527 5.5232344662970405 3.675434980027543 5.589983335032226 Q 3.7024273589996337 5.656732203767412 3.6956094028938216 5.7198948151331495 Q 3.688791446788009 5.783057426498887 3.6508150477713754 5.831853359912743 Q 3.612838648754742 5.880649293326599 3.5497980505048443 5.906142095689129 Q 3.4858303846336245 5.932009792204049 3.423959567281946 5.923051446361473 M 3.6385016771218113 5.792067924094513 Q 3.6508718711959025 5.72396338460874 3.612257773499717 5.628475419612571 Q 3.5818913471561156 5.553382942285488 3.539949613484251 5.5110167886177495 Q 3.4980078798123864 5.468650634950012 3.4519175475424886 5.458704214928194 Q 3.405827215272591 5.448757794906376 3.3613279694491336 5.466752714221103 Q 3.292724965471304 5.494494881497975 3.276844115747773 5.567255094609664 Q 3.260963266024242 5.640015307721355 3.298077787110867 5.731795002232236 Q 3.324320377778177 5.796689735724777 3.3653350438287197 5.8394307835449055 Q 3.406349709879262 5.882171831365033 3.45598120107756 5.89554026737802 Q 3.5056126922758573 5.908908703391006 3.5556743438272465 5.888664419161938 Q 3.62613148304772 5.860172463580287 3.6385016771218113 5.792067924094513 M 4.0369604042672025 5.634541199348313 Q 3.974471661778291 5.636387022241908 3.9186943881578187 5.604584573476648 Q 3.862917114537346 5.572782124711389 3.8242888033495257 5.510839783984089 Q 3.7867188020572624 5.4505944936876745 3.783495299000448 5.387786380931098 Q 3.780271795943633 5.324978268174523 3.8103771942780074 5.270259304449607 Q 3.8404825926123816 5.215540340724692 3.8990308324779117 5.179028649327985 Q 3.956730547127999 5.143046112879056 4.018530449535301 5.14104060485163 Q 4.080330351942601 5.1390350968242045 4.134729945399853 5.170518175321799 Q 4.189129538857105 5.202001253819395 4.227228695097146 5.263095069331253 Q 4.265327851337188 5.32418888484311 4.269504771949503 5.387580945341239 Q 4.2736816925618175 5.4509730058393675 4.244689396916774 5.505587077224226 Q 4.215697101271732 5.560201148609084 4.157997386621644 5.596183685058013 Q 4.099449146756114 5.63269537645472 4.0369604042672025 5.634541199348313 M 4.225699304838021 5.468521238466139 Q 4.226139173364358 5.399303780294956 4.171636213743187 5.311905683104382 Q 4.12877466297314 5.243175140653543 4.080155060890154 5.208676817603109 Q 4.031535458807167 5.174178494552676 3.9844203692887845 5.172329619306806 Q 3.937305279770402 5.170480744060937 3.8965760694291633 5.1958801815542985 Q 3.833785203486421 5.235037647689897 3.8306901737262065 5.3094464562463 Q 3.827595143965992 5.383855264802703 3.87998148379605 5.467859261131506 Q 3.917022330140535 5.527256026212479 3.964793407008079 5.562283504210691 Q 4.012564483875623 5.597310982208903 4.063757821089893 5.601919911028706 Q 4.114951158304163 5.60652883984851 4.160771519938057 5.577954472668479 Q 4.225259436311684 5.537738696637323 4.225699304838021 5.468521238466139 M 4.794698503774048 5.05570074228112 Q 4.799978120036997 5.06171120416986 4.804130774695807 5.068711594107905 Q 4.808283429354617 5.075711984045948 4.806780813882432 5.077031888111685 L 4.743285079127459 5.127482771829674 L 4.831058699498986 5.227406700729987 Q 4.838318171860542 5.235671085827006 4.834287566070407 5.243204625298232 L 4.815840326108667 5.287360025169527 L 4.8126523837578485 5.292822352838924 Q 4.809647152813478 5.295462160970399 4.804367536550529 5.289451699081659 L 4.6967953551929424 5.166988538098568 Q 4.642132601864632 5.212342516960056 4.494876285590486 5.3416931154023075 Q 4.491119746910023 5.344992875566651 4.4866016694383175 5.343637524704452 Q 4.482083591966611 5.3422821738422535 4.4816977070434145 5.337297086799277 L 4.416284324265192 4.782490733777333 Q 4.41646703567164 4.779668214239411 4.420223574352103 4.776368454075068 Q 4.428487959449121 4.769108981713512 4.433107623679201 4.774368135866161 L 4.718866853911319 5.099684385594248 L 4.779154184205174 5.044065703426836 Q 4.782159415149544 5.041425895295361 4.794698503774048 5.05570074228112 M 4.674356986075409 5.14144407507142 L 4.453933007097286 4.890507291216498 L 4.50351560076242 5.284856839720662 Q 4.503992841388841 5.288430666994677 4.506439707058717 5.28894335441756 Q 4.508886572728593 5.289456041840442 4.511891803672963 5.286816233708967 Q 4.581012115393481 5.226100646685053 4.674356986075409 5.14144407507142" fill="#212245" fill-rule="nonzero"></path></g><g clip-path="url(#SvgjsClipPath1004)"><g clip-path="url(#SvgjsClipPath1000aa7d5f65-1aa9-4f96-aa51-178d3e75ae52)"><path d=" M 0.22004698938448697 2.3635597402068997 C 0.06958284517813237 1.8802459752433365 0 1.3292694958990623 0 0.694575313787217 C 0.04990992613086799 0.665315215354933 0.10349841863153267 0.6359607947080389 0.1601725950101587 0.6067006962757548 L 0.16026691722476888 0.6067006962757548 C 0.17545279377700654 0.5988450032589363 0.19085875549666786 0.591011767912263 0.206484802383753 0.5832009902357349 L 0.20655217539418882 0.5832009902357349 L 0.21744639118166367 0.5778111494008681 L 0.21744639118166367 0.5781480144530472 L 0.43118726678935626 0.47863807803931624 C 0.7278869542157261 0.350042777002748 1.0357488863970805 0.24891282048018196 1.3509097068510427 0.1765172873418953 C 1.3800684868730222 0.06973650874020983 1.4785483753602362 -0.0031943594752654987 1.5891911171941824 0.00005414950854056783 C 1.699833859028129 0.0033026584923466344 1.7938652462689166 0.08188572402615078 1.8167089577648985 0.19019331367821318 C 1.8395526692608801 0.29850090333027557 1.7852678751500242 0.40836609847168076 1.6853617608943343 0.45602255097792915 C 1.585455646638645 0.5036790034841776 1.465910208511987 0.4767329796917418 1.3961102595524562 0.3908240962372464 C 1.0671932104962585 0.4660473837582832 0.7467200253327908 0.5743179139855811 0.4395752065886168 0.7139854780937818 L 0.22001330287926907 0.822456024895479 C 0.22739064752199323 1.310324205364505 0.27782608313426077 1.7517454324390642 0.3857913323576894 2.152736115951079 L 0.6128855386337648 2.152736115951079 C 0.5629916222957759 1.9769968536886475 0.5249060252908107 1.798117665911769 0.49888366767528447 1.617295852813305 L 0.9410864216709008 1.617295852813305 C 0.9211574851839802 1.494021209851842 0.9060704223803817 1.366140498743581 0.8958252332601055 1.2336537194885226 C 1.2699879840165695 1.0842742807501848 1.707063651918018 0.9699827058468312 2.041732343956994 0.9634879476408166 C 2.376421247899101 0.9699759685457876 2.81351712770368 1.0842675434491413 3.18765292925597 1.2336537194885226 C 3.158069440373594 1.6097568129455386 3.092724357551876 1.946783560349769 2.977496297803464 2.2520910944408072 L 2.7414751676446403 2.2520910944408072 L 2.7423173302750885 2.249995793816253 L 2.5947704374206055 2.249995793816253 C 2.5457179416592317 2.3501478514659504 2.434068329528964 2.4032321975553104 2.325427909331174 2.378055996667656 C 2.216787489133383 2.3528797957800016 2.13986798578744 2.2560966686679507 2.13986798578744 2.144577244387299 C 2.13986798578744 2.033057820106648 2.216787489133383 1.9362746929945966 2.325427909331174 1.911098492106942 C 2.434068329528964 1.885922291219288 2.5457179416592317 1.9390066373086479 2.5947704374206055 2.039158694958345 L 2.8195335375356008 2.039158694958345 C 2.884420483886356 1.8352340669711538 2.9276874311882497 1.616271783054684 2.9541111258811856 1.379765567220722 C 2.6434204882563233 1.2691795078913395 2.305167552062161 1.1884733786902504 2.041759293161169 1.1825917148792018 C 1.7783308223570464 1.1884733786902504 1.440077886162884 1.2691795078913395 1.1294209350432396 1.379765567220722 C 1.145720482098155 1.530632813731194 1.1711896763138663 1.6803678264741075 1.2056871828566096 1.8281396889722765 L 0.7578924689948168 1.8281396889722765 C 0.9205915518963195 2.6126444970892324 1.300696602173224 3.2235021081088786 2.041732343956994 3.7287929490766114 C 2.412876783845933 3.4757062353743895 2.6934651604080626 3.1961419285708845 2.9015669150422756 2.881543656340744 L 3.16020516480441 2.881543656340744 C 2.9099548548415375 3.3044305682444053 2.5481213649948318 3.669437326882639 2.041732343956994 3.991035654897063 C 1.3393282863571325 3.544952215500343 0.9149726428259704 3.0153734042704903 0.6808649061635241 2.3635732148089863 L 0.22003351478239955 2.3635732148089863 Z M 2.6661521419773746 2.4620860306682673 L 2.6661521419773746 2.4629079813955848 L 2.64091421226811 2.4629079813955848 C 2.498191226960833 2.727198826733286 2.3032541585657826 2.9641092806298626 2.0417323439569945 3.181151433748911 C 1.712231161818447 2.9076574351856745 1.4884247584516401 2.6026665542436844 1.341592019507777 2.251053550080095 L 1.4902909908407125 2.251053550080095 C 1.5397417771016517 2.3507653962768758 1.6513296448043187 2.4033130051611 1.7596943642986245 2.377917727987661 C 1.8680590837929312 2.352522450814222 1.9446813898502389 2.255867778747438 1.9446813898502389 2.1445671384357334 C 1.9446813898502389 2.033266498124029 1.8680590837929312 1.9366118260572447 1.7596943642986245 1.9112165488838058 C 1.6513296448043187 1.8858212717103664 1.5397417771016517 1.938368880594591 1.4902909908407125 2.038080726791371 L 1.1296769524828956 2.038080726791371 L 1.1296769524828956 2.038956575927037 L 1.035044822024719 2.038956575927037 C 1.1994753912944225 2.603454818465784 1.5090678488491802 3.063989768600991 2.041732343956994 3.4599140017282295 C 2.3598744365360598 3.223434735098442 2.5984355291883148 2.963913898899598 2.774029806287236 2.6729568160313932 L 3.254790134155282 2.6729568160313932 L 3.254790134155282 2.6706998201817926 L 3.273540042959575 2.6706998201817926 C 3.3220422281986983 2.5707071940292683 3.365133313713299 2.468179197868538 3.402626730954639 2.3635597402068984 L 3.6342349289299145 2.3635597402068984 C 3.3782579130799957 3.1314032028430887 2.885269383817846 3.7440327240371976 2.041732343956994 4.2482994952463065 C 1.390093849720536 3.858768960809428 0.9477294004998742 3.4044727514405797 0.6621352092623615 2.8639660379180345 C 0.7266573603034987 2.774074716801392 0.7212600170098803 2.651698301960835 0.6490745769744012 2.567836392645849 C 0.5768891369389221 2.483974483330864 0.4566786934457923 2.460425226462708 0.3581862057468847 2.510851285737166 C 0.2596937180479772 2.5612773450116237 0.20852024549238232 2.6725715224444935 0.2343553001350628 2.780163843446879 C 0.2601903547777434 2.8877561644492644 0.3563186552541329 2.96368025859189 0.46696907263182896 2.963886949695424 C 0.7953518627971418 3.5899573864714824 1.3082625912451682 4.08576210756985 2.041732343956994 4.501750023204882 C 3.0667116382225994 3.92043547726135 3.6612380315125987 3.1834825399099915 3.922820481830779 2.152722641348992 L 3.4705387254739626 2.152722641348992 C 3.574427907566023 1.7913136014680318 3.62693169459867 1.394041908132076 3.641208035510024 0.9549719991217268 C 3.1994903671895467 0.7396748069729663 2.6150429762607486 0.5600179373447636 2.1471778425901227 0.5295990231329832 L 2.1471778425901227 0.31012470433720085 C 2.692959862829794 0.3427062921839716 3.379895077233587 0.5638043005312576 3.8634918088409806 0.822442550293392 C 3.860780499102119 1.0644825470466708 3.844601683098171 1.3061841164847918 3.8150304024344877 1.5464261831358126 C 3.711505699164414 1.5858794450241729 3.6485007263647975 1.6911328112594142 3.662632457650576 1.8010155589118582 C 3.6767641889363545 1.9108983065643026 3.764351110928326 1.9967844451275336 3.8744898128466105 2.008759018211343 C 3.9846285147648945 2.0207335912951527 4.0886263264418865 1.9556770553611889 4.1260422230349985 1.8513987031354378 C 4.16345811962811 1.7471203509096869 4.124544737483393 1.6307861496127796 4.03191759762953 1.570006736788395 C 4.066742706723813 1.2970786715128195 4.083511849021294 1.0059059950112197 4.083511849021294 0.6945551018840863 C 3.5856724630077634 0.4027828055896074 2.7232507683217464 0.09556861530323467 2.0417660304622123 0.08706614138623205 C 2.007082404689844 0.08748385405093424 1.9719383966794968 0.08868983093773572 1.9363340064311714 0.09068407204663649 L 1.9363340064311714 0.5295990231329832 C 1.468441923556371 0.5600179373447636 0.8840282191327907 0.7396748069729663 0.442297076210226 0.9549719991217266 C 0.4473500519929138 1.1106395855007423 0.4574357916551585 1.2611216958432132 0.4725542951969604 1.406418330149139 L 0.6924193774532705 1.406418330149139 C 0.6813163053334447 1.3043572024069043 0.6729351028352265 1.199567467742018 0.6672757699586163 1.0920491261544805 C 1.0960712948775002 0.9023065168640328 1.6340380459066144 0.7513370750794097 2.0417660304622123 0.7443504938972134 C 2.4495411761251153 0.7513370750794097 2.9874742406490116 0.9023065168640328 3.416269765567896 1.0920491261544805 C 3.3886805177944206 1.6094266851944028 3.3020320890728905 2.061674755046002 3.1284455276849568 2.4620860306682677 Z M 2.6145713651876976 2.0979214346604818 C 2.615245095292056 2.1012811021142155 2.6158357320168766 2.1046497526360075 2.61634327536216 2.108027386225857 C 2.6158402235509057 2.1046407695679488 2.615249586826085 2.101272119046157 2.6145713651876976 2.0979214346604818 Z M 2.379439558766627 2.0281095212468676 C 2.3323324230211866 2.0280986206807032 2.289857825024369 2.0564672457361794 2.271823780405275 2.0999856968993154 C 2.253789735786181 2.143504148062451 2.263748225209924 2.1936010426860375 2.2970551102160877 2.2269137094683273 C 2.330361995222251 2.260226376250617 2.380457160536874 2.2701935611405517 2.423978741320909 2.252167070549746 C 2.467500322104944 2.234140579958941 2.495876319301877 2.1916709067130915 2.4958735954018403 2.1445637697852113 C 2.495877169275197 2.1136805891718664 2.4836118398216995 2.084060981971601 2.461776028571973 2.0622213802212737 C 2.439940217322247 2.040381778470947 2.410322739534348 2.028111307950867 2.3794395587662622 2.0281095212468676 Z M 1.4700184520005692 2.191697927886123 C 1.469344721896211 2.1883292773643315 1.4687451021033322 2.18496062684254 1.468212855320889 2.1814774422030068 C 1.4687451021033322 2.1849269403373217 1.4693514591972545 2.188315802762244 1.4700184520005692 2.191697927886123 Z M 1.7050559362070299 2.0281095212468676 C 1.6579512513535513 2.028109521325689 1.6154849236670579 2.0564850585974104 1.5974593706407603 2.100004373541946 C 1.579433817614463 2.143523688486482 1.5893989601308638 2.1936161633431235 1.6227079656701857 2.226923241947033 C 1.6560169712095074 2.260230320550942 1.7061100224853172 2.2701925651029766 1.7496282945435124 2.2521644944293153 C 1.7931465666017072 2.2341364237556545 1.8215196470657893 2.1916684545598697 1.821516922046418 2.144563769785212 C 1.8215258618416632 2.1136742755784454 1.8092585560327978 2.0840474660942863 1.7874157524999754 2.0622059261738386 C 1.7655729489671526 2.040364386253391 1.7359454298449275 2.0280987944339546 1.7050559362070334 2.0281095212468676 Z M 3.9072168926138393 1.5308967042303911 C 3.9109628319940724 1.5310045010470885 3.9147289832774352 1.531206620078396 3.9184412361524497 1.5314626375180522 C 3.9147289832774352 1.531206620078396 3.9109628319940724 1.5310045010470885 3.9072168926138393 1.5308967042303911 Z M 3.900405481258776 1.654007406199796 C 3.9647141571590354 1.654014848041669 4.016841997641631 1.7061507321683373 4.016839517027668 1.7704594084513412 C 4.016837036413706 1.8347680847343446 3.9647051739539383 1.8868999471941124 3.9003964976709344 1.8869024278080748 C 3.8360878213879306 1.8869049084220377 3.7839519372612624 1.834777067939443 3.783944495419389 1.7704683920391837 C 3.783931978358088 1.7395771826061013 3.7961979202404903 1.7099476019455475 3.8180413057028444 1.6881042164832056 C 3.8398846911651976 1.6662608310208638 3.869514271825758 1.6539948891384777 3.9004054812588085 1.654007406199796 Z M 0.4674002598986186 2.607746479230547 C 0.40309070658499047 2.6077502004174913 0.3509594864908378 2.6598844373063724 0.35095948674198396 2.7241939907276613 C 0.3509594869931301 2.7885035441489503 0.40309070749447934 2.8406377806306584 0.4674002608081366 2.8406415013153103 C 0.5317098141217939 2.8406452219999627 0.5838470668165247 2.7885170180606678 0.5838545084369627 2.724207465069935 C 0.5838634465215614 2.6933185193859805 0.5715972802597433 2.66369203963734 0.5497561281925814 2.641849623980218 C 0.5279149761254196 2.6200072083230954 0.49828920604809007 2.6077393281319465 0.4674002598986797 2.607746479230547 Z M 1.3452705858775738 0.2765459959359795 C 1.3458702056704526 0.280244774208907 1.346510249269593 0.2839166032776601 1.3472513523843874 0.28758843234641324 C 1.346510249269593 0.2839166032776601 1.3458702056704526 0.280244774208907 1.3452705858775738 0.2765459959359795 Z M 1.5821406159678895 0.12323871068923267 C 1.5350422669789077 0.12323598627297175 1.4925803895532295 0.1516063296491081 1.4745566321466925 0.19511953056401057 C 1.4565328747401554 0.238632731478913 1.4664970951138379 0.28871867491754544 1.4998025842445337 0.3220203096923648 C 1.5331080733752296 0.3553219444671841 1.5831951696779345 0.36528036812541353 1.6267062843391102 0.34725157488092867 C 1.670217399000286 0.3292227816364438 1.6985828279016821 0.2867576210806068 1.6985746526031027 0.239659272722359 C 1.6985746526031027 0.20878028436985185 1.6863071001783176 0.1791662167448919 1.6644710950483297 0.15733273893031222 C 1.6426350899183413 0.13549926111573254 1.6130196025539856 0.12323513652560175 1.582140615188109 0.12323871068932296 Z M 2.5947569628185185 2.2499823192141655 L 2.5961785333387146 2.246997694851858 L 2.596899424550378 2.2454952767191387 L 2.5975731546547367 2.2439659093822453 L 2.5982468847590954 2.2424432793463955 L 2.5989206148634536 2.2409206493105454 L 2.5995943449678123 2.2393912819736523 L 2.6002680750721705 2.237861914636759 L 2.6003084988784324 2.237861914636759 L 2.6009283305744417 2.2363392846009087 L 2.6016020606788 2.2347964426619287 L 2.6022151550737664 2.233246863421904 L 2.602801300264558 2.2316905468808366 L 2.603434606562655 2.230134230339768 L 2.6040274890544906 2.2285442272934826 L 2.604613634245282 2.227001385354502 L 2.604613634245282 2.227001385354502 L 2.6051863048339867 2.225431594211347 L 2.6057118143153857 2.2238483284661053 L 2.606277747603047 2.22227853732295 L 2.6068234689875776 2.2206885342766642 L 2.6073557157700202 2.219078319327248 L 2.607867750649333 2.2174748416788748 L 2.608366310926558 2.215871364030502 L 2.608366310926558 2.215871364030502 L 2.608885083106914 2.2142476744789983 L 2.609363431481009 2.2126509341316694 L 2.609814830650929 2.2110272445801655 L 2.6102999163260674 2.2093968177276184 L 2.6107378408938997 2.207786602778202 L 2.6111622908596455 2.2061224894204363 L 2.611620427330609 2.20451227447102 L 2.611620427330609 2.20451227447102 L 2.6120179280921807 2.202908796822647 L 2.6124086915527087 2.2012379461638383 L 2.6128129296153237 2.1995738328060734 L 2.613035260549762 2.198751882078756 L 2.6132036930758513 2.1979366686524826 L 2.6135742446332486 2.196272555294717 L 2.6141334406198666 2.193577634877284 L 2.6142749239417817 2.1929039047729257 L 2.6142749239417817 2.1929039047729257 L 2.614598314391874 2.1912465287162037 L 2.615386578613973 2.18700876635979 L 2.6155280619358883 2.1861868156324724 L 2.6163702245663365 2.18110689064561 L 2.6170978530790436 2.175966329949356 L 2.6172258617988717 2.175124167318908 L 2.617313446712438 2.1742752673874164 L 2.617313446712438 2.1742752673874164 L 2.6178928546021862 2.169134706691162 L 2.618438575986717 2.163071135751937 L 2.618512686298196 2.1622020239173145 L 2.6188360767482886 2.156973878307494 L 2.6188360767482886 2.156973878307494 L 2.619031458478552 2.1516850969882806 L 2.619031458478552 2.150815985153658 L 2.619031458478552 2.150539755810871 L 2.6191257806931625 2.144631142795648 L 2.619031458478552 2.1387225297804253 L 2.619031458478552 2.1384463004376384 L 2.619031458478552 2.1375704513019724 L 2.6188360767482886 2.1322884072838026 L 2.6188360767482886 2.1322884072838026 L 2.618512686298196 2.127066998975026 L 2.618438575986717 2.1261844125383162 C 2.6182701434606273 2.124163222225241 2.618128660138712 2.122142031912166 2.6178928546021862 2.120120841599091 L 2.617313446712438 2.1149870182038804 L 2.617313446712438 2.1149870182038804 L 2.6172258617988717 2.114138118272389 L 2.6170978530790436 2.1132622691367233 L 2.6163702245663365 2.108155394945687 Z" fill="#bfd234" transform="matrix(1,0,0,1,0,0)" fill-rule="evenodd"></path></g></g><g><path d=" M -0.9281909357143618 2.2508750116024405 A 2.998226681355451 2.998226681355451 0 0 1 5.06826242699654 2.2508750116024405 A 2.998226681355451 2.998226681355451 0 0 1 -0.9281909357143618 2.2508750116024405 Z M -0.878190935714362 2.2508750116024405 A 2.948226681355451 2.948226681355451 0 0 0 5.01826242699654 2.2508750116024405 A 2.948226681355451 2.948226681355451 0 0 0 -0.878190935714362 2.2508750116024405 Z" fill="#212245" fill-rule="nonzero"></path></g><g><path d=" M -2.3190228814744955 2.2508750116024414 A 4.389058627115586 4.389058627115586 0 0 1 6.459094372756676 2.2508750116024414 A 4.389058627115586 4.389058627115586 0 0 1 -2.3190228814744955 2.2508750116024414 Z M -2.2690228814744957 2.2508750116024405 A 4.339058627115585 4.339058627115585 0 0 0 6.409094372756674 2.2508750116024405 A 4.339058627115585 4.339058627115585 0 0 0 -2.2690228814744957 2.2508750116024405 Z" fill="#212245" fill-rule="nonzero"></path></g><g transform="matrix(-0.6438986409115167,-0.7651108025850254,0.7651108025850254,-0.6438986409115167,-4.8689851334011,5.752619648389859)"><g clip-path="url(#SvgjsClipPath1005)"><path d=" M -1.2338944860262497 4.175285353839605 L -0.9578565272331463 4.175285353839605 C -0.9305870393021116 4.175285353839605 -0.9129938858538359 4.155053927977536 -0.9129938858538359 4.130246560736157 C -0.9129938858538359 4.122858196943054 -0.9149275513710773 4.115293681425812 -0.9187988858538358 4.1082556193568465 L -1.0570819927503876 3.8612458633223636 C -1.0655272668883187 3.845939679701674 -1.0806562979228014 3.838198612115467 -1.095787330681422 3.838198612115467 C -1.1109183634400428 3.838198612115467 -1.1262235461986634 3.845939679701674 -1.1346688203365944 3.8612458633223636 L -1.2727757755090083 4.1082556193568465 C -1.2766463093021119 4.115467831425812 -1.2787573275779738 4.122858196943054 -1.2787573275779738 4.130246560736157 C -1.2787573275779738 4.155053927977536 -1.261164174129698 4.175285353839605 -1.2338944860262497 4.175285353839605 Z" fill="#212245" transform="matrix(1,0,0,1,0,0)" fill-rule="nonzero"></path></g></g><g transform="matrix(0.6438986409115167,-0.7651108025850254,-0.7651108025850254,-0.6438986409115167,4.932118272262515,10.59703051792448)"><g clip-path="url(#SvgjsClipPath1006)"><path d=" M 5.097751666618772 4.175285353839605 L 5.3737896254118755 4.175285353839605 C 5.40105911334291 4.175285353839605 5.418652266791185 4.155053927977536 5.418652266791185 4.130246560736157 C 5.418652266791185 4.122858196943054 5.416718601273945 4.115293681425812 5.412847266791186 4.1082556193568465 L 5.274564159894634 3.8612458633223636 C 5.266118885756703 3.845939679701674 5.250989854722221 3.838198612115467 5.2358588219636 3.838198612115467 C 5.220727789204979 3.838198612115467 5.2054226064463585 3.845939679701674 5.196977332308427 3.8612458633223636 L 5.058870377136014 4.1082556193568465 C 5.05499984334291 4.115467831425812 5.052888825067048 4.122858196943054 5.052888825067048 4.130246560736157 C 5.052888825067048 4.155053927977536 5.070481978515324 4.175285353839605 5.097751666618772 4.175285353839605 Z" fill="#212245" transform="matrix(1,0,0,1,0,0)" fill-rule="nonzero"></path></g></g></g><defs><clipPath id="SvgjsClipPath1004"><path d=" M 0 0 h 4.140071491282178 v 4.501750023204881 h -4.140071491282178 Z"></path></clipPath><clipPath id="SvgjsClipPath1000aa7d5f65-1aa9-4f96-aa51-178d3e75ae52"><path d=" M 0 0 L 4.140071491282178 0 L 4.140071491282178 4.501750023204881 L 0 4.501750023204881 Z"></path></clipPath><clipPath id="SvgjsClipPath1005"><path d=" M -1.376028709991767 3.719132457287881 h 0.5604827586206897 v 0.5805 h -0.5604827586206897 Z"></path></clipPath><clipPath id="SvgjsClipPath1006"><path d=" M 4.955617442653255 3.719132457287881 h 0.5604827586206897 v 0.5805 h -0.5604827586206897 Z"></path></clipPath></defs></svg>